<?xml version="1.0" standalone="no"?>
<!DOCTYPE svg PUBLIC "-//W3C//DTD SVG 20010904//EN"
 "http://www.w3.org/TR/2001/REC-SVG-20010904/DTD/svg10.dtd">
<svg version="1.0" xmlns="http://www.w3.org/2000/svg"
 width="94.000000pt" height="94.000000pt" viewBox="0 0 94.000000 94.000000"
 preserveAspectRatio="xMidYMid meet">
<metadata>
Created by potrace 1.14, written by Peter Selinger 2001-2017
</metadata>
<g transform="translate(0.000000,94.000000) scale(0.100000,-0.100000)"
fill="#000000" stroke="none">
<path d="M400 900 l-13 -41 -35 33 -34 33 7 -45 c4 -25 12 -49 17 -55 7 -7 9
1 4 24 l-6 35 23 -22 c30 -28 33 -28 42 6 l7 27 12 -33 c16 -46 26 -30 13 21
-14 60 -22 63 -37 17z"/>
<path d="M508 935 c-9 -15 -21 -105 -14 -105 3 0 9 15 14 33 l9 32 12 -29 12
-29 25 24 26 24 -7 -32 c-4 -19 -3 -33 3 -33 5 0 12 17 16 38 10 64 8 68 -24
37 -34 -32 -33 -32 -52 15 -8 19 -17 30 -20 25z"/>
<path d="M240 873 c1 -5 7 -19 15 -33 19 -33 19 -49 -1 -57 -12 -4 -26 5 -45
28 -15 19 -30 31 -33 28 -3 -3 9 -23 28 -44 33 -39 33 -39 60 -22 31 21 32 30
5 73 -20 33 -29 42 -29 27z"/>
<path d="M661 844 c-12 -19 -21 -39 -21 -43 0 -8 44 -41 55 -41 14 0 3 19 -15
25 -11 3 -20 13 -20 21 0 16 26 19 35 4 3 -5 12 -10 18 -10 7 1 1 10 -12 21
-18 15 -21 23 -13 31 9 9 15 9 24 0 7 -7 19 -12 28 -12 9 0 3 8 -15 20 -16 11
-33 20 -37 20 -3 0 -15 -16 -27 -36z"/>
<path d="M763 770 c-33 -30 -48 -65 -17 -39 13 10 17 10 25 -2 4 -8 6 -22 3
-31 -3 -10 -1 -18 5 -18 6 0 11 6 11 14 0 8 11 17 25 20 30 8 34 45 7 69 -23
21 -21 22 -59 -13z m56 -9 c15 -28 -8 -44 -34 -25 -20 15 -20 15 -1 30 25 18
23 18 35 -5z"/>
<path d="M106 764 c-35 -35 -5 -68 40 -44 34 19 42 5 14 -25 -13 -14 -19 -25
-12 -25 6 0 20 12 32 27 19 24 19 28 5 42 -13 14 -18 14 -45 -2 -28 -17 -30
-17 -30 -1 0 9 8 23 18 30 9 7 12 14 5 14 -6 0 -19 -7 -27 -16z"/>
<path d="M467 754 c-3 -3 -3 -12 -1 -19 3 -7 -11 -38 -31 -69 -20 -31 -34 -60
-31 -64 4 -6 138 -9 154 -3 1 1 -14 27 -34 59 -21 31 -37 67 -36 80 2 21 -8
29 -21 16z"/>
<path d="M260 677 c0 -9 418 -427 428 -427 3 0 -42 48 -101 108 l-107 107 43
41 c71 70 173 179 153 163 -11 -8 -60 -56 -111 -107 l-91 -93 -107 108 c-59
59 -107 105 -107 100z"/>
<path d="M269 559 c0 -2 -3 -13 -6 -24 -18 -70 -16 -84 11 -91 47 -11 75 39
44 77 -15 18 -48 43 -49 38z"/>
<path d="M654 554 c3 -7 -7 -17 -23 -24 -61 -25 -57 -121 5 -136 78 -20 129
91 59 130 -11 6 -26 18 -33 26 -7 8 -11 10 -8 4z"/>
<path d="M36 484 c-12 -8 -14 -14 -7 -14 7 0 11 -6 8 -14 -4 -9 2 -13 17 -12
24 1 32 28 13 45 -8 6 -18 5 -31 -5z"/>
<path d="M874 484 c-18 -7 -4 -44 16 -44 22 0 35 31 18 42 -14 8 -17 9 -34 2z"/>
<path d="M355 354 c-49 -52 -92 -97 -95 -101 -9 -15 165 152 183 175 41 51 -4
13 -88 -74z"/>
<path d="M251 424 c7 -8 6 -13 -3 -17 -7 -2 -10 -8 -6 -12 3 -4 14 -2 24 3 11
6 27 7 42 1 14 -5 28 -7 31 -3 3 4 0 9 -7 11 -9 4 -10 9 -3 17 8 9 -2 12 -39
12 -37 0 -47 -3 -39 -12z"/>
<path d="M460 351 c0 -11 -5 -23 -10 -26 -6 -4 -8 -10 -5 -15 3 -5 -2 -15 -10
-23 -11 -12 -12 -17 -2 -20 8 -3 6 -10 -8 -21 -20 -15 -19 -15 7 -16 14 0 28
-6 31 -12 4 -10 7 -10 18 0 7 6 24 12 39 12 20 0 22 2 10 10 -8 5 -15 15 -16
22 0 7 -4 20 -7 28 -3 8 -9 28 -14 44 -11 35 -33 47 -33 17z"/>
<path d="M812 328 c-28 -28 -3 -88 37 -88 22 0 51 30 51 53 0 9 -9 21 -20 27
-24 13 -27 2 -4 -14 14 -11 14 -14 -3 -35 -19 -23 -19 -23 -43 -3 -23 19 -24
20 -7 46 18 27 11 36 -11 14z"/>
<path d="M85 309 c-16 -10 -34 -20 -39 -22 -5 -2 -1 -18 8 -36 10 -18 20 -31
23 -28 2 3 0 15 -7 26 -11 21 -6 41 10 41 5 0 12 -9 15 -20 3 -11 11 -20 16
-20 6 0 5 9 -2 21 -7 15 -8 24 0 32 7 7 14 2 22 -16 7 -15 15 -24 20 -21 8 4
-21 64 -31 63 -3 0 -18 -9 -35 -20z"/>
<path d="M160 216 c0 -17 -8 -26 -32 -34 l-33 -10 29 -1 c23 -1 27 -5 23 -21
-3 -11 -1 -22 3 -25 5 -3 11 8 15 25 4 17 10 28 13 26 4 -2 16 0 27 5 18 7 17
8 -6 8 -22 1 -26 5 -21 26 2 15 0 25 -7 25 -6 0 -11 -11 -11 -24z"/>
<path d="M760 233 c0 -4 9 -17 21 -29 l20 -22 -47 6 c-37 4 -46 2 -42 -9 3 -8
10 -14 16 -13 7 1 35 2 64 3 l52 1 -38 35 c-40 36 -46 40 -46 28z"/>
<path d="M221 124 c-12 -20 -19 -39 -15 -43 4 -3 9 -1 11 6 3 9 10 9 28 1 48
-22 76 20 37 55 -27 25 -38 21 -61 -19z m58 3 c16 -20 -6 -39 -31 -26 -15 8
-17 13 -7 25 14 17 23 18 38 1z"/>
<path d="M668 154 c-8 -7 43 -84 55 -84 8 0 -2 19 -38 72 -6 10 -14 15 -17 12z"/>
<path d="M740 155 c0 -3 9 -14 19 -24 24 -24 37 -14 14 11 -15 17 -33 24 -33
13z"/>
<path d="M347 110 c-17 -48 -27 -84 -24 -87 2 -1 19 -5 38 -8 32 -5 33 -5 9 7
-14 6 -26 13 -28 13 -1 1 3 16 9 33 6 17 9 37 6 44 -3 10 -6 9 -10 -2z"/>
<path d="M577 113 c-19 -5 -18 -15 7 -75 12 -28 30 -30 19 -2 -6 18 28 19 45
2 9 -9 12 -9 12 -1 0 7 -4 14 -10 18 -5 3 -7 12 -3 20 12 32 -22 50 -70 38z
m53 -28 c0 -18 -32 -28 -42 -13 -12 19 -10 26 10 31 22 5 32 -1 32 -18z"/>
<path d="M440 81 c-23 -45 -5 -81 41 -81 46 0 70 49 39 80 -26 26 -66 26 -80
1z m74 -18 c7 -18 -11 -53 -27 -53 -33 1 -54 42 -32 64 17 17 51 11 59 -11z"/>
</g>
</svg>
