<svg xmlns="http://www.w3.org/2000/svg" viewBox="0 0 516 120">
    <rect x="48.82" y="48.82" width="20.41" height="20.41"/>
    <rect x="487.59" y="89.63" width="20.41" height="20.41"/>
    <path d="M230.24,67.85v-.24c0-24-18.66-43.35-44.67-43.35s-44.92,19.62-44.92,43.59v.24c0,24,18.67,43.35,44.68,43.35a46,46,0,0,0,25-7.22l9.27,8.3,11.8-13.12-8.67-7.35A43.27,43.27,0,0,0,230.24,67.85Zm-19.38.24a29.42,29.42,0,0,1-2.29,11.56L194.72,67.13l-11.8,13.24,13.73,11.68a25.28,25.28,0,0,1-11.08,2.29c-14.93,0-25.53-12-25.53-26.49v-.24c0-14.45,10.36-26.25,25.29-26.25s25.53,12,25.53,26.49Z"/>
    <path d="M317.05,53.76v-.24c0-8-2.53-14.57-7.22-19.27-5.54-5.54-13.86-8.55-24.57-8.55H246.72V110h18.55V83h14.57l18.06,27h21.68L299,79.89C309.7,75.92,317.05,67.37,317.05,53.76Zm-18.79,1c0,7.11-5.18,11.92-14.21,11.92H265.27V42.44h18.42c9,0,14.57,4.09,14.57,12Z"/>
    <polygon points="327.74 42.8 353.39 42.8 353.39 110 371.93 110 371.93 42.8 397.59 42.8 397.59 25.7 327.74 25.7 327.74 42.8"/>
    <polygon points="444.89 59.54 424.79 25.7 403.11 25.7 435.5 76.76 435.5 110 454.05 110 454.05 76.4 486.44 25.7 465.37 25.7 444.89 59.54"/>
    <polygon fill="#31d3b3" points="28.41 8 28.41 28.41 89.63 28.41 89.63 89.63 110.04 89.63 110.04 28.41 110.04 8 28.41 8"/>
    <polygon fill="#31d3b3" points="28.41 28.41 8 28.41 8 89.63 8 110.04 89.63 110.04 89.63 89.63 28.41 89.63 28.41 28.41"/>
</svg>


