<svg width="199" height="53" viewBox="0 0 199 53" fill="none" xmlns="http://www.w3.org/2000/svg">
<g clip-path="url(#clip0_3:414)">
<path d="M82.1557 31.3592C83.014 32.299 83.0833 33.4877 82.3263 34.1892C81.5693 34.8907 80.3911 34.7006 79.5169 33.7421L77.2352 31.2254C75.3736 32.2421 73.2876 32.7733 71.1686 32.7702C64.3236 32.7702 58.7314 27.3351 58.7314 20.6819C58.7314 14.0286 64.3289 8.59351 71.1686 8.59351C78.0082 8.59351 83.6057 14.0259 83.6057 20.6819C83.6012 22.2471 83.288 23.796 82.6841 25.239C82.0802 26.682 81.1976 27.9905 80.0873 29.0888L82.1557 31.3592ZM74.5697 28.2856L72.4 25.892C71.5391 24.9442 71.4564 23.7501 72.2134 23.0701C72.9704 22.39 74.1406 22.5667 74.9989 23.5092L77.4191 26.1651C78.7633 24.6182 79.4911 22.627 79.4627 20.5739C79.4342 18.5208 78.6516 16.5507 77.2651 15.0419C75.8786 13.5332 73.986 12.5922 71.9508 12.3997C69.9156 12.2073 67.8814 12.7769 66.239 13.9992C64.5965 15.2215 63.4615 17.0103 63.0521 19.022C62.6427 21.0337 62.9877 23.1264 64.0208 24.8981C65.054 26.6698 66.7024 27.9956 68.6495 28.6209C70.5965 29.2462 72.705 29.1267 74.5697 28.2856Z" fill="black"/>
<path d="M89.4084 30.7113V10.6899C89.4084 9.60553 89.9895 9.01918 91.069 9.01918H100.502C101.477 9.00205 102.445 9.18261 103.349 9.55007C104.252 9.91752 105.073 10.4643 105.761 11.1577C106.449 11.8511 106.991 12.6769 107.355 13.5856C107.718 14.4943 107.895 15.4672 107.875 16.4462C107.889 17.948 107.4 19.4109 106.489 20.601C105.577 21.7912 104.294 22.6398 102.845 23.0112L107.4 29.7903C107.633 30.0976 107.754 30.4753 107.744 30.8612C107.744 31.3446 107.552 31.8079 107.212 32.1497C106.872 32.4915 106.41 32.6838 105.929 32.6845C105.633 32.6823 105.341 32.608 105.079 32.4682C104.818 32.3283 104.593 32.127 104.426 31.8813L98.9456 23.7233H93.3667V30.7059C93.3479 31.2205 93.1311 31.7078 92.762 32.0652C92.3929 32.4226 91.9002 32.6223 91.3876 32.6223C90.8749 32.6223 90.3822 32.4226 90.0131 32.0652C89.644 31.7078 89.4273 31.2205 89.4084 30.7059V30.7113ZM99.4227 20.6015C101.958 20.6015 103.906 18.8023 103.906 16.4462C103.906 14.0901 101.987 12.2802 99.58 12.2802H93.3667V20.5801L99.4227 20.6015Z" fill="black"/>
<path d="M112.686 23.8625C112.683 18.9736 116.914 14.9575 122.079 14.9575C125.115 14.9575 127.775 16.4247 129.276 18.5559C129.607 18.9669 129.795 19.4759 129.809 20.0044C129.804 20.2358 129.754 20.464 129.66 20.6756C129.567 20.8872 129.432 21.0779 129.264 21.2367C129.097 21.3955 128.899 21.5191 128.683 21.6003C128.467 21.6816 128.238 21.7188 128.007 21.7099C127.349 21.7099 126.72 21.2627 126.323 20.7621C125.382 19.4555 123.94 18.4247 122.021 18.4247C120.59 18.4247 119.218 18.9957 118.206 20.0119C117.194 21.0282 116.626 22.4065 116.626 23.8437C116.626 25.2809 117.194 26.6593 118.206 27.6755C119.218 28.6918 120.59 29.2627 122.021 29.2627C122.868 29.287 123.708 29.0972 124.463 28.7109C125.219 28.3245 125.865 27.7538 126.344 27.0512C126.739 26.5158 127.354 26.082 128.013 26.082C128.244 26.0697 128.476 26.1046 128.694 26.1845C128.911 26.2644 129.111 26.3878 129.28 26.5471C129.449 26.7064 129.584 26.8984 129.677 27.1116C129.771 27.3247 129.82 27.5547 129.823 27.7875C129.802 28.3185 129.607 28.8278 129.268 29.236C128.425 30.3446 127.336 31.2411 126.088 31.8549C124.841 32.4687 123.468 32.7829 122.079 32.7728C116.914 32.7728 112.686 28.7621 112.686 23.8625Z" fill="black"/>
<path d="M133.959 23.8598C133.959 18.9736 138.171 14.9575 143.313 14.9575C148.454 14.9575 152.684 18.9736 152.684 23.8678C152.684 28.7621 148.468 32.7701 143.313 32.7701C138.158 32.7701 133.959 28.7594 133.959 23.8598ZM148.726 23.8598C148.728 22.7858 148.413 21.7353 147.821 20.8411C147.229 19.947 146.386 19.2494 145.398 18.8365C144.411 18.4237 143.325 18.3142 142.276 18.5218C141.226 18.7295 140.262 19.2449 139.505 20.0031C138.748 20.7612 138.231 21.7279 138.021 22.7809C137.81 23.834 137.916 24.926 138.323 25.9189C138.731 26.9118 139.422 27.761 140.31 28.3591C141.199 28.9571 142.243 29.2772 143.313 29.2788C144.745 29.2753 146.118 28.7041 147.133 27.6894C148.148 26.6746 148.724 25.2984 148.734 23.8598H148.726Z" fill="black"/>
<path d="M156.691 23.8385C156.691 18.5962 160.862 14.9496 165.239 14.9496C167.923 14.9496 170.471 16.5051 171.37 18.7622H171.428V9.30835C171.418 9.04115 171.462 8.77472 171.557 8.52497C171.653 8.27522 171.797 8.04729 171.981 7.85478C172.166 7.66228 172.388 7.50916 172.633 7.40458C172.878 7.3 173.141 7.24609 173.407 7.24609C173.674 7.24609 173.937 7.3 174.182 7.40458C174.427 7.50916 174.648 7.66228 174.833 7.85478C175.018 8.04729 175.162 8.27522 175.257 8.52497C175.352 8.77472 175.396 9.04115 175.386 9.30835V30.6658C175.386 31.9375 174.736 32.6926 173.521 32.6926C172.593 32.6926 171.721 32.0741 171.721 31.1798V28.7059H171.663C170.717 31.2628 167.907 32.7702 165.303 32.7702C164.153 32.7524 163.019 32.5072 161.963 32.0486C160.908 31.59 159.954 30.9269 159.154 30.0974C158.354 29.2679 157.725 28.2881 157.302 27.2142C156.879 26.1402 156.672 24.9931 156.691 23.8385ZM171.436 23.8599C171.436 22.7881 171.12 21.7404 170.527 20.8493C169.934 19.9581 169.092 19.2635 168.106 18.8534C167.12 18.4432 166.035 18.3359 164.989 18.545C163.942 18.7541 162.981 19.2702 162.226 20.0281C161.472 20.7859 160.958 21.7515 160.75 22.8027C160.542 23.8539 160.649 24.9435 161.057 25.9337C161.465 26.9239 162.157 27.7702 163.044 28.3656C163.931 28.9611 164.974 29.2789 166.041 29.2789C167.472 29.2789 168.844 28.708 169.856 27.6917C170.868 26.6755 171.436 25.2971 171.436 23.8599Z" fill="black"/>
<path d="M196.553 25.0887H184.668C185.201 27.7982 187.381 29.5278 190.321 29.5278C191.164 29.5424 191.999 29.3722 192.769 29.0291C193.539 28.6859 194.226 28.1782 194.781 27.5412C195.186 27.0726 195.713 26.6657 196.334 26.6657C197.315 26.6657 198.07 27.3538 198.07 28.2721C198.051 28.828 197.827 29.3569 197.441 29.7554C196.068 31.4207 193.442 32.7621 190.188 32.7621C184.908 32.7621 180.741 28.9441 180.741 23.8464C180.741 18.9736 184.588 14.9575 190.119 14.9575C195.034 14.9575 199 18.8933 199 22.7969C199 24.1195 197.952 25.0887 196.553 25.0887ZM195.271 22.2052C194.645 19.6724 192.797 18.1891 190.119 18.1891C187.133 18.1891 185.251 19.8357 184.705 22.2052H195.271Z" fill="black"/>
<path d="M139.098 49.7368C138.739 49.5654 138.539 49.3352 138.539 49.0112C138.535 48.9093 138.553 48.8077 138.594 48.7141C138.634 48.6204 138.695 48.5372 138.772 48.4705C138.849 48.4038 138.94 48.3555 139.038 48.329C139.136 48.3026 139.239 48.2987 139.338 48.3178C140.301 48.4837 141.167 48.7435 142.004 48.7435C142.889 48.7435 143.686 48.4998 143.686 47.8706C143.686 47.121 142.494 46.9389 141.38 46.6846C139.97 46.3633 138.496 45.8813 138.496 44.3579C138.496 42.9094 139.829 42.1009 142.113 42.1009C143.006 42.0766 143.894 42.2295 144.728 42.5507C145.088 42.7086 145.368 42.9202 145.368 43.2763C145.375 43.3726 145.359 43.4693 145.321 43.5582C145.283 43.6471 145.225 43.7256 145.151 43.7872C145.077 43.8488 144.989 43.8917 144.895 43.9123C144.801 43.9328 144.704 43.9305 144.611 43.9054C143.718 43.7127 142.894 43.4503 142.015 43.4503C141.135 43.4503 140.45 43.6912 140.45 44.307C140.45 45.0594 141.559 45.2629 142.668 45.4824C144.254 45.793 145.765 46.2696 145.765 47.8117C145.765 49.3539 144.27 50.1785 141.943 50.1785C141.018 50.1785 139.76 50.0473 139.098 49.7368Z" fill="#939393"/>
<path d="M154.617 46.6362H149.249C149.494 47.8598 150.475 48.6416 151.802 48.6416C152.182 48.6482 152.56 48.5714 152.907 48.4165C153.255 48.2616 153.564 48.0323 153.815 47.7447C153.898 47.6332 154.003 47.5406 154.125 47.4732C154.246 47.4058 154.38 47.3651 154.518 47.3538C154.618 47.348 154.718 47.3624 154.811 47.3962C154.905 47.43 154.991 47.4825 155.064 47.5505C155.138 47.6185 155.196 47.7006 155.237 47.7919C155.278 47.8833 155.3 47.9819 155.302 48.082C155.294 48.3339 155.192 48.5737 155.017 48.754C154.396 49.5037 153.207 50.1115 151.741 50.1115C149.355 50.1115 147.476 48.3872 147.476 46.0954C147.476 43.8946 149.214 42.0793 151.712 42.0793C153.932 42.0793 155.723 43.8571 155.723 45.6188C155.72 45.7595 155.688 45.8981 155.63 46.0262C155.572 46.1543 155.489 46.2693 155.386 46.3643C155.283 46.4594 155.161 46.5324 155.029 46.5792C154.897 46.6259 154.757 46.6453 154.617 46.6362ZM154.036 45.335C153.931 44.8012 153.638 44.3232 153.211 43.9892C152.783 43.6551 152.25 43.4875 151.709 43.5171C150.376 43.5171 149.513 44.2587 149.265 45.335H154.036Z" fill="#939393"/>
<path d="M158.063 49.1798V42.9228C158.069 42.6981 158.162 42.4846 158.322 42.3279C158.483 42.1713 158.698 42.084 158.922 42.0847C159.027 42.0819 159.132 42.1 159.231 42.1381C159.329 42.1762 159.419 42.2335 159.495 42.3067C159.572 42.3798 159.633 42.4674 159.675 42.5644C159.718 42.6615 159.741 42.7659 159.743 42.8719V44.1624H159.769C160.036 42.9094 160.977 42.074 162.011 42.0553C162.108 42.0426 162.207 42.0511 162.3 42.0801C162.394 42.1092 162.48 42.1581 162.553 42.2237C162.627 42.2892 162.685 42.3698 162.724 42.4599C162.763 42.5501 162.783 42.6477 162.781 42.7461C162.795 42.9708 162.721 43.192 162.576 43.3637C162.431 43.5353 162.226 43.644 162.003 43.6671C160.71 43.9161 159.849 45.0058 159.849 46.5078V49.1851C159.849 49.423 159.755 49.6512 159.588 49.8194C159.42 49.9876 159.193 50.0821 158.956 50.0821C158.72 50.0821 158.492 49.9876 158.325 49.8194C158.157 49.6512 158.063 49.423 158.063 49.1851V49.1798Z" fill="#939393"/>
<path d="M167.443 49.7634L164.138 43.3698C164.074 43.2498 164.041 43.1153 164.042 42.9789C164.046 42.7787 164.118 42.5858 164.245 42.4314C164.372 42.2771 164.547 42.1703 164.742 42.1285C164.937 42.0867 165.14 42.1122 165.319 42.2009C165.498 42.2897 165.641 42.4364 165.727 42.6174L168.011 47.2333L170.189 42.6817C170.26 42.5182 170.377 42.3785 170.525 42.279C170.672 42.1794 170.845 42.1241 171.023 42.1195C171.138 42.1204 171.253 42.1447 171.359 42.1908C171.465 42.2368 171.56 42.3038 171.64 42.3877C171.72 42.4715 171.782 42.5706 171.823 42.6791C171.864 42.7875 171.883 42.9031 171.879 43.0191C171.881 43.163 171.846 43.3051 171.777 43.4314L168.501 49.7634C168.453 49.8642 168.377 49.9492 168.283 50.0087C168.189 50.0682 168.08 50.0998 167.968 50.0998C167.857 50.0998 167.748 50.0682 167.654 50.0087C167.559 49.9492 167.484 49.8642 167.435 49.7634H167.443Z" fill="#939393"/>
<path d="M173.846 39.8894C173.842 39.6689 173.904 39.4522 174.023 39.2671C174.142 39.0819 174.314 38.9366 174.516 38.8496C174.717 38.7626 174.94 38.7379 175.156 38.7786C175.372 38.8194 175.571 38.9237 175.727 39.0783C175.884 39.2329 175.991 39.4308 176.035 39.6469C176.08 39.8629 176.059 40.0873 175.976 40.2914C175.892 40.4955 175.751 40.6702 175.568 40.7931C175.386 40.916 175.172 40.9817 174.952 40.9817C174.662 40.9811 174.384 40.8664 174.177 40.6622C173.97 40.458 173.851 40.1806 173.846 39.8894ZM174.059 49.1558V42.9978C174.059 42.7599 174.153 42.5318 174.321 42.3636C174.488 42.1954 174.715 42.1009 174.952 42.1009C175.189 42.1009 175.416 42.1954 175.583 42.3636C175.751 42.5318 175.845 42.7599 175.845 42.9978V49.1558C175.845 49.3937 175.751 49.6218 175.583 49.79C175.416 49.9582 175.189 50.0527 174.952 50.0527C174.715 50.0527 174.488 49.9582 174.321 49.79C174.153 49.6218 174.059 49.3937 174.059 49.1558Z" fill="#939393"/>
<path d="M178.26 46.0821C178.26 43.8679 180.168 42.066 182.509 42.066C183.139 42.0576 183.763 42.2007 184.327 42.4834C184.891 42.7661 185.38 43.1802 185.753 43.6912C185.904 43.8759 185.99 44.1056 185.998 44.3445C185.996 44.4478 185.973 44.5498 185.932 44.6445C185.891 44.7392 185.831 44.8248 185.757 44.8964C185.683 44.968 185.595 45.0242 185.499 45.0618C185.403 45.0994 185.301 45.1177 185.198 45.1156C185.048 45.1036 184.902 45.0592 184.77 44.9852C184.639 44.9113 184.525 44.8096 184.436 44.6872C184.221 44.3662 183.932 44.1025 183.594 43.9187C183.255 43.7349 182.877 43.6366 182.493 43.6323C181.846 43.6323 181.227 43.8901 180.77 44.349C180.313 44.808 180.056 45.4304 180.056 46.0794C180.056 46.7284 180.313 47.3509 180.77 47.8098C181.227 48.2687 181.846 48.5265 182.493 48.5265C182.875 48.5378 183.254 48.4526 183.595 48.2785C183.936 48.1045 184.228 47.8473 184.444 47.5306C184.529 47.4059 184.641 47.3021 184.772 47.2265C184.902 47.151 185.048 47.1058 185.198 47.0941C185.302 47.0883 185.407 47.1039 185.505 47.1398C185.603 47.1757 185.693 47.2312 185.77 47.3031C185.846 47.3749 185.907 47.4615 185.949 47.5577C185.991 47.6538 186.013 47.7575 186.014 47.8625C186.004 48.1029 185.916 48.3334 185.763 48.5185C185.384 49.0205 184.894 49.4269 184.331 49.7057C183.769 49.9845 183.149 50.128 182.522 50.1249C180.168 50.1062 178.26 48.2963 178.26 46.0821Z" fill="#939393"/>
<path d="M194.996 46.6362H189.628C189.873 47.8598 190.854 48.6416 192.182 48.6416C192.562 48.6482 192.939 48.5714 193.287 48.4165C193.634 48.2616 193.944 48.0323 194.194 47.7447C194.277 47.6324 194.382 47.539 194.504 47.4707C194.625 47.4024 194.759 47.3607 194.898 47.3484C194.997 47.3426 195.097 47.3571 195.191 47.3909C195.285 47.4247 195.371 47.4771 195.444 47.5451C195.517 47.6131 195.576 47.6952 195.617 47.7866C195.657 47.8779 195.679 47.9766 195.681 48.0767C195.673 48.3286 195.572 48.5683 195.396 48.7487C194.775 49.4983 193.586 50.1061 192.12 50.1061C189.737 50.1061 187.856 48.3819 187.856 46.09C187.856 43.8892 189.591 42.074 192.088 42.074C194.309 42.074 196.103 43.8518 196.103 45.6135C196.1 45.7545 196.068 45.8934 196.011 46.022C195.953 46.1506 195.87 46.2661 195.766 46.3616C195.663 46.4571 195.542 46.5307 195.409 46.5779C195.277 46.6251 195.137 46.6449 194.996 46.6362ZM194.415 45.335C194.311 44.8009 194.018 44.3226 193.591 43.9885C193.163 43.6544 192.629 43.4869 192.088 43.5171C190.756 43.5171 189.892 44.2587 189.644 45.335H194.415Z" fill="#939393"/>
<path d="M36.6158 46.3043C37.2158 46.3038 37.8142 46.2419 38.4017 46.1195V52.4703C37.9032 52.489 37.3968 52.4997 36.8637 52.4997H14.9267C12.9668 52.5018 11.0257 52.1158 9.2145 51.3638C7.40325 50.6117 5.75738 49.5083 4.37102 48.1168C2.98467 46.7252 1.88503 45.0728 1.13501 43.254C0.384989 41.4352 -0.000700887 39.4858 9.56139e-07 37.5171V15.493C-0.000222692 14.7563 0.0550216 14.0206 0.165261 13.2922H6.04799C5.88159 13.9703 5.79835 14.6662 5.8001 15.3645V37.6055C5.7994 38.7489 6.02292 39.8812 6.45789 40.9379C6.89286 41.9945 7.53076 42.9547 8.33518 43.7637C9.1396 44.5727 10.0948 45.2146 11.1462 45.6529C12.1976 46.0911 13.3246 46.317 14.4629 46.3177L36.6158 46.3043Z" fill="#E3B24F"/>
<path d="M51.7691 40.5881H44.7535C45.1057 39.6288 45.2861 38.6145 45.2866 37.5921V15.3512C45.2859 13.0426 44.3734 10.8287 42.7492 9.19528C41.1251 7.56189 38.9221 6.64253 36.6238 6.63898H14.3536V0.499756C14.5376 0.499756 14.7215 0.499756 14.9161 0.499756H36.8637C40.8202 0.503304 44.6134 2.08452 47.4099 4.89592C50.2063 7.70733 51.7771 11.5189 51.7771 15.4931V37.5279C51.7771 38.5828 51.7771 39.6109 51.7771 40.5988" fill="#E3B24F"/>
<path d="M33.0361 20.9497H19.3888V34.6579H33.0361V20.9497Z" fill="#030005"/>
</g>
<defs>
<clipPath id="clip0_3:414">
<rect width="199" height="52" fill="white" transform="translate(0 0.499756)"/>
</clipPath>
</defs>
</svg>
