<svg style="width: 100%; height: 100%;" viewBox="0 0 323 295" fill="none" xmlns="http://www.w3.org/2000/svg">
            <g clip-path="url(#clip0_419:849)">
            <path d="M196.523 196.22H125.634C125.386 196.22 125.149 196.121 124.973 195.945C124.798 195.77 124.7 195.531 124.699 195.283V117.131C124.7 116.883 124.798 116.644 124.973 116.469C125.149 116.293 125.386 116.194 125.634 116.194H196.523C196.77 116.194 197.008 116.293 197.184 116.469C197.359 116.644 197.457 116.883 197.458 117.131V195.283C197.457 195.531 197.359 195.77 197.184 195.945C197.008 196.121 196.77 196.22 196.523 196.22Z" fill="white"/>
            <path d="M196.523 196.22H125.634C125.386 196.22 125.149 196.121 124.973 195.945C124.798 195.77 124.7 195.531 124.699 195.283V117.131C124.7 116.883 124.798 116.644 124.973 116.469C125.149 116.293 125.386 116.194 125.634 116.194H196.523C196.77 116.194 197.008 116.293 197.184 116.469C197.359 116.644 197.457 116.883 197.458 117.131V195.283C197.457 195.531 197.359 195.77 197.184 195.945C197.008 196.121 196.77 196.22 196.523 196.22ZM125.634 116.569C125.486 116.569 125.343 116.628 125.238 116.734C125.133 116.839 125.073 116.982 125.073 117.131V195.283C125.073 195.432 125.133 195.575 125.238 195.68C125.343 195.786 125.486 195.845 125.634 195.845H196.523C196.671 195.845 196.814 195.786 196.919 195.68C197.024 195.575 197.083 195.432 197.084 195.283V117.131C197.083 116.982 197.024 116.839 196.919 116.734C196.814 116.628 196.671 116.569 196.523 116.569H125.634Z" fill="#3F3D56"/>
            <path d="M156.215 145.993H138.633C138.386 145.993 138.148 145.894 137.972 145.718C137.797 145.543 137.699 145.304 137.698 145.056V127.439C137.699 127.19 137.797 126.952 137.972 126.777C138.148 126.601 138.386 126.502 138.633 126.502H156.215C156.463 126.502 156.701 126.601 156.876 126.777C157.052 126.952 157.15 127.19 157.15 127.439V145.056C157.15 145.304 157.052 145.543 156.876 145.718C156.701 145.894 156.463 145.993 156.215 145.993ZM138.633 126.877C138.485 126.877 138.342 126.936 138.237 127.042C138.132 127.147 138.072 127.29 138.072 127.439V145.056C138.072 145.205 138.132 145.348 138.237 145.453C138.342 145.559 138.485 145.618 138.633 145.618H156.215C156.364 145.618 156.507 145.559 156.612 145.453C156.717 145.348 156.776 145.205 156.776 145.056V127.439C156.776 127.29 156.717 127.147 156.612 127.042C156.507 126.936 156.364 126.877 156.215 126.877H138.633Z" fill="#F2F2F2"/>
            <path d="M151.165 148.148H133.583C133.36 148.148 133.146 148.059 132.988 147.901C132.83 147.743 132.741 147.528 132.741 147.305V129.688C132.741 129.464 132.83 129.25 132.988 129.092C133.146 128.934 133.36 128.845 133.583 128.844H151.165C151.388 128.845 151.602 128.934 151.76 129.092C151.917 129.25 152.006 129.464 152.006 129.688V147.305C152.006 147.528 151.917 147.743 151.76 147.901C151.602 148.059 151.388 148.148 151.165 148.148Z" fill="#10213A"/>
            <path d="M188.573 156.769H133.584C133.473 156.769 133.363 156.748 133.261 156.706C133.159 156.663 133.066 156.601 132.987 156.523C132.909 156.445 132.847 156.351 132.804 156.249C132.762 156.147 132.74 156.037 132.74 155.926C132.74 155.815 132.762 155.705 132.804 155.603C132.847 155.5 132.909 155.407 132.987 155.329C133.066 155.251 133.159 155.188 133.261 155.146C133.363 155.104 133.473 155.082 133.584 155.083H188.573C188.797 155.083 189.011 155.171 189.169 155.33C189.326 155.488 189.415 155.702 189.415 155.926C189.415 156.15 189.326 156.364 189.169 156.522C189.011 156.68 188.797 156.769 188.573 156.769V156.769Z" fill="#CCCCCC"/>
            <path d="M175.294 162.579H133.584C133.473 162.579 133.363 162.558 133.261 162.515C133.159 162.473 133.066 162.411 132.987 162.333C132.909 162.254 132.847 162.161 132.804 162.059C132.762 161.957 132.74 161.847 132.74 161.736C132.74 161.625 132.762 161.515 132.804 161.413C132.847 161.31 132.909 161.217 132.987 161.139C133.066 161.061 133.159 160.998 133.261 160.956C133.363 160.914 133.473 160.892 133.584 160.892H175.294C175.517 160.892 175.731 160.981 175.889 161.139C176.047 161.298 176.135 161.512 176.135 161.736C176.135 161.959 176.047 162.174 175.889 162.332C175.731 162.49 175.517 162.579 175.294 162.579V162.579Z" fill="#CCCCCC"/>
            <path d="M188.385 135.404H164.07C163.847 135.404 163.633 135.315 163.475 135.157C163.317 134.999 163.229 134.784 163.229 134.561C163.229 134.337 163.317 134.122 163.475 133.964C163.633 133.806 163.847 133.717 164.07 133.717H188.385C188.496 133.717 188.606 133.739 188.708 133.781C188.81 133.823 188.903 133.885 188.982 133.964C189.06 134.042 189.122 134.135 189.165 134.237C189.207 134.34 189.229 134.45 189.229 134.561C189.229 134.672 189.207 134.781 189.165 134.884C189.122 134.986 189.06 135.079 188.982 135.158C188.903 135.236 188.81 135.298 188.708 135.34C188.606 135.383 188.496 135.404 188.385 135.404Z" fill="#10213A"/>
            <path d="M182.317 141.214H164.07C163.847 141.214 163.633 141.125 163.475 140.967C163.317 140.809 163.229 140.594 163.229 140.37C163.229 140.147 163.317 139.932 163.475 139.774C163.633 139.616 163.847 139.527 164.07 139.527H182.317C182.54 139.527 182.754 139.616 182.912 139.774C183.07 139.932 183.159 140.147 183.159 140.37C183.159 140.594 183.07 140.809 182.912 140.967C182.754 141.125 182.54 141.214 182.317 141.214Z" fill="#10213A"/>
            <path d="M188.573 168.389H133.583C133.36 168.389 133.146 168.3 132.988 168.142C132.83 167.984 132.741 167.769 132.741 167.546C132.741 167.322 132.83 167.107 132.988 166.949C133.146 166.791 133.36 166.702 133.583 166.702H188.573C188.683 166.702 188.793 166.724 188.895 166.766C188.998 166.808 189.091 166.87 189.169 166.949C189.247 167.027 189.309 167.12 189.352 167.222C189.394 167.325 189.416 167.435 189.416 167.546C189.416 167.657 189.394 167.766 189.352 167.869C189.309 167.971 189.247 168.064 189.169 168.143C189.091 168.221 188.998 168.283 188.895 168.325C188.793 168.368 188.683 168.389 188.573 168.389Z" fill="#CCCCCC"/>
            <path d="M175.293 174.199H133.583C133.36 174.199 133.146 174.11 132.988 173.952C132.83 173.794 132.741 173.579 132.741 173.356C132.741 173.132 132.83 172.917 132.988 172.759C133.146 172.601 133.36 172.512 133.583 172.512H175.293C175.403 172.512 175.513 172.534 175.615 172.576C175.718 172.618 175.811 172.68 175.889 172.759C175.967 172.837 176.03 172.93 176.072 173.032C176.114 173.135 176.136 173.245 176.136 173.356C176.136 173.466 176.114 173.576 176.072 173.679C176.03 173.781 175.967 173.874 175.889 173.953C175.811 174.031 175.718 174.093 175.615 174.135C175.513 174.178 175.403 174.199 175.293 174.199L175.293 174.199Z" fill="#CCCCCC"/>
            <path d="M188.573 180.009H133.584C133.473 180.009 133.363 179.987 133.261 179.945C133.159 179.903 133.066 179.841 132.987 179.762C132.909 179.684 132.847 179.591 132.804 179.489C132.762 179.386 132.74 179.276 132.74 179.165C132.74 179.054 132.762 178.945 132.804 178.842C132.847 178.74 132.909 178.647 132.987 178.568C133.066 178.49 133.159 178.428 133.261 178.386C133.363 178.343 133.473 178.322 133.584 178.322H188.573C188.797 178.322 189.011 178.411 189.169 178.569C189.326 178.727 189.415 178.942 189.415 179.165C189.415 179.389 189.326 179.604 189.169 179.762C189.011 179.92 188.797 180.009 188.573 180.009Z" fill="#CCCCCC"/>
            <path d="M188.573 185.819H133.583C133.36 185.819 133.146 185.73 132.988 185.572C132.83 185.413 132.741 185.199 132.741 184.975C132.741 184.752 132.83 184.537 132.988 184.379C133.146 184.221 133.36 184.132 133.583 184.132H188.573C188.796 184.132 189.01 184.221 189.168 184.379C189.326 184.537 189.414 184.752 189.414 184.975C189.414 185.199 189.326 185.413 189.168 185.572C189.01 185.73 188.796 185.819 188.573 185.819Z" fill="#CCCCCC"/>
            <path d="M109.918 230.84C109.92 241.85 106.613 252.605 100.427 261.705C94.2422 270.805 85.4653 277.827 75.2402 281.857C74.4381 282.179 73.6213 282.479 72.8007 282.757C71.8841 283.072 70.9576 283.361 70.0212 283.624C69.3707 283.805 68.714 283.976 68.0512 284.135C58.073 286.531 47.6251 286.084 37.8867 282.846C37.1216 282.59 36.3639 282.316 35.6136 282.031C34.6045 281.642 33.6065 281.224 32.627 280.776C32.5531 280.746 32.4829 280.713 32.4127 280.679C32.0283 280.502 31.655 280.324 31.2743 280.135H31.2706C30.7494 279.883 30.2332 279.621 29.7219 279.35C28.5465 278.728 27.397 278.065 26.2734 277.361C25.6894 276.998 25.114 276.621 24.5472 276.231C15.6271 270.197 8.68265 261.659 4.58399 251.687C0.485337 241.715 -0.585238 230.753 1.50641 220.174C3.59805 209.595 8.7589 199.87 16.3423 192.217C23.9257 184.564 33.5944 179.324 44.1369 177.153C45.1016 176.953 46.0762 176.78 47.0606 176.635C47.6779 176.538 48.3025 176.457 48.9272 176.387C49.3744 176.335 49.8217 176.287 50.2763 176.25H50.28C51.496 176.138 52.7232 176.069 53.9614 176.042C54.1314 176.038 54.3014 176.035 54.4751 176.031C54.5712 176.031 54.6673 176.027 54.7634 176.031H54.7671C54.915 176.027 55.0628 176.027 55.2144 176.027C55.8353 176.027 56.4563 176.038 57.0735 176.061C58.4337 176.105 59.7791 176.199 61.1098 176.342C61.8786 176.424 62.6363 176.524 63.394 176.635C63.479 176.65 63.5677 176.661 63.6527 176.675C63.9041 176.716 64.1591 176.757 64.4104 176.801C64.9427 176.887 65.4713 176.987 65.9998 177.094C66.4951 177.194 66.9867 177.298 67.4783 177.409C69.2952 177.824 71.089 178.335 72.8525 178.938C84.8041 183.032 94.9795 191.134 101.66 201.875C101.849 202.175 102.034 202.478 102.215 202.786C102.355 203.015 102.488 203.245 102.621 203.478C102.67 203.556 102.714 203.634 102.755 203.712C102.784 203.756 102.806 203.8 102.832 203.845C103.076 204.271 103.313 204.704 103.542 205.137C107.741 213.05 109.931 221.878 109.918 230.84Z" fill="white"/>
            <path d="M55.2205 286.025C49.2903 286.025 43.3987 285.07 37.7707 283.198C37.045 282.955 36.2969 282.687 35.4829 282.377C34.456 281.982 33.4441 281.556 32.4739 281.113C32.4093 281.087 32.3326 281.051 32.2559 281.015C31.888 280.845 31.5283 280.673 31.1624 280.492L31.1105 280.469C30.5915 280.218 30.0662 279.952 29.5492 279.677C28.372 279.054 27.2039 278.38 26.0778 277.675C25.4918 277.311 24.9062 276.928 24.3383 276.537C15.3584 270.461 8.36764 261.865 4.24181 251.826C0.115979 241.786 -0.961414 230.751 1.14461 220.1C3.25064 209.45 8.44643 199.66 16.081 191.956C23.7156 184.251 33.4494 178.976 44.0629 176.79C45.0307 176.59 46.0213 176.414 47.007 176.268C47.5909 176.177 48.2241 176.093 48.8863 176.019C49.3365 175.966 49.7878 175.918 50.2467 175.88C51.4647 175.77 52.7118 175.699 53.9536 175.672L54.567 175.66C54.6372 175.659 54.7075 175.658 54.7777 175.661C54.9093 175.657 55.0601 175.657 55.2147 175.657C55.8401 175.657 56.4701 175.668 57.0872 175.691C58.4505 175.735 59.8177 175.831 61.1496 175.974C61.8549 176.049 62.6068 176.145 63.4479 176.268L63.8032 176.325C64.0267 176.361 64.2523 176.397 64.4751 176.437C64.9544 176.513 65.4643 176.607 66.0736 176.731C66.5713 176.832 67.0656 176.936 67.56 177.048C69.3897 177.466 71.1962 177.98 72.9723 178.588C84.9984 182.721 95.2389 190.874 101.975 201.679C102.164 201.98 102.35 202.286 102.534 202.598C102.673 202.825 102.808 203.058 102.943 203.295C102.986 203.364 103.032 203.444 103.074 203.524C103.095 203.556 103.113 203.589 103.131 203.621L103.152 203.659C103.384 204.064 103.618 204.49 103.869 204.964C107.505 211.831 109.653 219.39 110.171 227.147C110.689 234.903 109.567 242.682 106.877 249.974C104.187 257.265 99.9906 263.905 94.562 269.459C89.1335 275.013 82.5954 279.355 75.3759 282.202C74.5931 282.516 73.7659 282.821 72.9194 283.108C72.0028 283.423 71.0609 283.716 70.1214 283.98C69.4707 284.162 68.8036 284.335 68.1378 284.495C63.9069 285.511 59.5713 286.025 55.2205 286.025ZM31.3556 279.765H31.3575L31.4388 279.803C31.8163 279.99 32.1867 280.167 32.568 280.343C32.6351 280.375 32.6983 280.405 32.7649 280.432C33.7375 280.876 34.7353 281.296 35.7466 281.685C36.5496 281.991 37.2886 282.256 38.0041 282.495C47.6764 285.714 58.0547 286.157 67.9654 283.775C68.6225 283.617 69.281 283.446 69.9224 283.267C70.8479 283.007 71.7763 282.717 72.6813 282.407C73.5163 282.124 74.3306 281.824 75.103 281.513C85.2842 277.547 94.0261 270.581 100.176 261.534C106.325 252.488 109.593 241.786 109.548 230.84V230.84C109.554 221.939 107.38 213.173 103.216 205.311C102.969 204.845 102.739 204.425 102.512 204.029L102.485 203.981C102.473 203.96 102.462 203.938 102.448 203.918L102.427 203.884C102.391 203.814 102.351 203.743 102.308 203.673C102.17 203.432 102.039 203.206 101.9 202.979C101.718 202.67 101.535 202.369 101.348 202.072C94.7027 191.412 84.5989 183.367 72.7333 179.289C70.982 178.69 69.2006 178.183 67.3965 177.77C66.9085 177.66 66.4196 177.556 65.9272 177.457C65.3277 177.335 64.8274 177.243 64.3525 177.167C64.1274 177.127 63.9054 177.092 63.6855 177.056L63.331 177C62.5096 176.879 61.7672 176.784 61.0712 176.71C59.7569 176.569 58.4081 176.475 57.0619 176.431C56.4523 176.409 55.8313 176.398 55.2148 176.398C55.0644 176.398 54.9214 176.398 54.7766 176.401C54.6921 176.399 54.6341 176.4 54.5763 176.401L53.9696 176.412C52.745 176.439 51.515 176.509 50.3139 176.618L50.2767 176.62C49.8563 176.655 49.4132 176.703 48.9701 176.754C48.317 176.828 47.6942 176.911 47.1178 177.001C46.1433 177.145 45.1666 177.318 44.2122 177.516C33.7408 179.672 24.1374 184.877 16.6052 192.478C9.07297 200.079 3.94695 209.738 1.86939 220.246C-0.208162 230.753 0.855151 241.641 4.92611 251.546C8.99706 261.45 15.8946 269.931 24.7545 275.924C25.3154 276.311 25.8913 276.688 26.4686 277.046C27.5806 277.743 28.733 278.407 29.895 279.022C30.3788 279.279 30.8697 279.529 31.3556 279.765Z" fill="#CBCBCB"/>
            <path d="M102.025 218.938C101.428 219.719 100.667 220.359 99.7962 220.814C98.9254 221.268 97.9656 221.526 96.9846 221.569C96.0036 221.611 95.0252 221.438 94.1184 221.061C93.2115 220.683 92.3982 220.112 91.7358 219.385L77.3033 224.619L71.9902 216.606L92.4753 209.502C93.7666 208.468 95.3918 207.945 97.0427 208.031C98.6936 208.117 100.256 208.807 101.433 209.97C102.61 211.133 103.32 212.688 103.43 214.341C103.539 215.994 103.039 217.63 102.025 218.938Z" fill="#9F616A"/>
            <path d="M56.9277 219.684L86.6612 209.836L91.6717 220.795L63.9505 229.313L56.9277 219.684Z" fill="#CCCCCC"/>
            <path d="M68.0512 284.135C58.073 286.531 47.6251 286.084 37.8867 282.846L38.552 276.542L39.1693 270.654L48.4282 256.31L51.3962 251.714L63.6268 256.169L64.8725 264.039L66.8573 276.591L68.0512 284.135Z" fill="#2F2E41"/>
            <path d="M75.241 281.857C74.439 282.179 73.6221 282.479 72.8016 282.757C71.8849 283.072 70.9584 283.361 70.0221 283.624C69.3715 283.805 68.7148 283.975 68.052 284.135C58.0738 286.531 47.6259 286.084 37.8875 282.846C37.1224 282.59 36.3647 282.316 35.6144 282.031C35.7168 284.224 35.6501 286.422 35.4148 288.605C34.3471 286.047 33.4168 283.433 32.6279 280.776C32.5725 280.598 32.5207 280.42 32.469 280.242C32.2102 279.346 31.9811 278.491 31.7741 277.687C31.5375 276.757 31.3342 275.894 31.1642 275.105C30.4878 272.009 30.2734 270.094 30.2734 270.094L37.4995 255.058L38.9447 255.225L39.5434 255.291L43.1657 255.706L48.429 256.31L56.9561 257.284L64.8733 264.039L71.9662 270.094C71.9662 270.094 72.5576 272.109 73.4854 275.446C73.988 277.239 74.5831 279.413 75.241 281.857Z" fill="#2F2E41"/>
            <path d="M52.3322 181.835C59.3933 181.835 65.1175 176.099 65.1175 169.024C65.1175 161.949 59.3933 156.213 52.3322 156.213C45.271 156.213 39.5469 161.949 39.5469 169.024C39.5469 176.099 45.271 181.835 52.3322 181.835Z" fill="#9F616A"/>
            <path d="M61.2319 196.012C61.2319 196.012 58.1591 186.494 50.9326 186.494C49.126 186.494 46.2105 186.644 43.8404 188.194C34.2985 194.433 28.4936 205.038 28.0489 216.446L25.8271 273.437C25.8271 273.437 38.0566 277.893 42.5036 276.222C46.9507 274.551 51.3977 263.411 51.3977 263.411C51.3977 263.411 50.2859 278.45 54.733 277.893C59.1801 277.336 75.8565 276.222 76.4124 273.994C76.9683 271.766 67.9025 223.861 67.9025 223.861L61.2319 196.012Z" fill="#CCCCCC"/>
            <path d="M46.1168 172.78C47.2637 172.711 48.3837 173.1 49.5227 173.251C53.5978 173.793 57.8371 170.83 58.7369 166.811C58.8091 166.276 58.9683 165.756 59.2082 165.272C59.8354 164.246 61.2637 164.051 62.4412 164.287C63.6187 164.523 64.7348 165.075 65.934 165.138C67.7855 165.235 69.563 164.093 70.5497 162.52C71.5364 160.947 71.8158 159.012 71.6826 157.159L70.795 158.093C70.4343 157.328 70.2951 156.477 70.3931 155.637C69.9228 155.512 69.4281 155.51 68.9566 155.63C68.485 155.751 68.0523 155.992 67.7 156.328C66.9173 156.411 67.508 154.873 66.9266 154.342C66.6438 154.168 66.3067 154.105 65.9802 154.164C64.3152 154.181 62.9684 152.904 61.6563 151.877C59.383 150.101 56.7246 148.886 53.896 148.33C52.0159 147.963 50.0167 147.904 48.2337 148.605C46.7694 149.181 45.5437 150.231 44.4098 151.323C41.6183 154.013 39.1464 157.173 37.9851 160.875C37.041 163.907 37.0143 167.151 37.9082 170.199C38.3762 171.781 39.7864 177.201 41.851 177.327C44.4453 177.486 42.8877 172.973 46.1168 172.78Z" fill="#2F2E41"/>
            <path opacity="0.1" d="M51.5156 212.878L38.4233 232.119L34.2363 276.81L51.5156 212.878Z" fill="black"/>
            <path d="M107.001 201.117C107.315 200.677 107.435 200.225 107.271 200.108C107.106 199.99 106.718 200.251 106.405 200.691C106.092 201.131 105.971 201.583 106.136 201.701C106.301 201.819 106.688 201.557 107.001 201.117Z" fill="#3F3D56"/>
            <path d="M89.5426 221.846C89.1736 221.582 88.9243 221.182 88.8496 220.734C88.7748 220.286 88.8807 219.827 89.144 219.457L104.035 198.545C104.298 198.175 104.697 197.925 105.144 197.85C105.591 197.776 106.05 197.882 106.419 198.146L89.5426 221.846L89.5426 221.846Z" fill="#10213A"/>
            <path d="M90.1543 223.936L89.2928 223.32C89.1449 223.214 89.0192 223.08 88.923 222.926C88.8267 222.772 88.7618 222.6 88.7318 222.42C88.7019 222.241 88.7075 222.057 88.7484 221.88C88.7893 221.702 88.8646 221.535 88.9701 221.387L105.924 197.577C106.104 197.324 106.377 197.153 106.682 197.102C106.988 197.051 107.301 197.123 107.553 197.304L108.59 198.045L90.1543 223.936H90.1543Z" fill="#2F2E41"/>
            <path d="M105.412 199.98L104.277 201.574L104.675 201.858L105.809 200.265L105.412 199.98Z" fill="#D0CDE1"/>
            <path d="M103.852 202.171L102.718 203.765L103.115 204.049L104.25 202.455L103.852 202.171Z" fill="#D0CDE1"/>
            <path d="M37.2075 291.388C37.7811 290.589 38.173 289.674 38.3556 288.708C38.5381 287.741 38.5069 286.746 38.2642 285.793C38.0214 284.839 37.573 283.951 36.9505 283.19C36.328 282.429 35.5466 281.814 34.6613 281.389L35.4906 266.032L26.2999 263.251L25.4328 284.954C24.8179 286.492 24.7872 288.202 25.3467 289.761C25.9061 291.319 27.0167 292.618 28.4681 293.411C29.9195 294.204 31.6108 294.436 33.2215 294.063C34.8323 293.691 36.2505 292.739 37.2075 291.388H37.2075Z" fill="#9F616A"/>
            <path d="M37.1587 278.756H23.8626L20.2041 237.719L20.2166 237.682L32.6614 201.06C33.0995 199.77 33.8009 198.586 34.7208 197.583C35.6407 196.58 36.7589 195.78 38.0044 195.234C39.2498 194.688 40.595 194.408 41.9545 194.411C43.314 194.414 44.6578 194.701 45.9005 195.254C47.1432 195.806 48.2574 196.612 49.1723 197.619C50.0872 198.627 50.7826 199.814 51.2144 201.106C51.6461 202.398 51.8047 203.765 51.68 205.122C51.5553 206.478 51.15 207.794 50.4901 208.985L35.8467 235.408L37.1587 278.756Z" fill="#CCCCCC"/>
            <path d="M321.709 100.787C321.719 111.588 318.547 122.153 312.59 131.156C306.633 140.158 298.156 147.199 288.222 151.394C278.288 155.59 267.339 156.753 256.748 154.74C246.157 152.726 236.395 147.624 228.685 140.074C220.976 132.524 215.662 122.862 213.41 112.299C211.158 101.735 212.069 90.7406 216.027 80.6934C219.985 70.6461 226.815 61.9933 235.661 55.8195C244.507 49.6458 254.975 46.2259 265.753 45.9886C265.923 45.9849 266.093 45.9812 266.266 45.9775C266.51 45.9738 266.758 45.9738 267.006 45.9738C267.626 45.9738 268.247 45.9849 268.865 46.0071C270.225 46.0515 271.57 46.1454 272.901 46.2886C273.67 46.37 274.427 46.47 275.185 46.5811C275.27 46.596 275.359 46.6071 275.444 46.6219C278.571 47.1049 281.649 47.8621 284.644 48.8848C295.454 52.579 304.84 59.5695 311.487 68.8768C318.134 78.1842 321.708 89.3419 321.709 100.787Z" fill="white"/>
            <path d="M266.954 156.072C236.582 156.073 211.861 131.33 211.832 100.891C211.818 86.4429 217.455 72.565 227.533 62.2326C237.611 51.9001 251.329 45.9358 265.744 45.6183L266.258 45.6071C267.128 45.5946 268.014 45.6058 268.877 45.6369C270.239 45.6816 271.606 45.7769 272.94 45.9204C273.646 45.9951 274.398 46.0915 275.238 46.2149L275.507 46.257C288.489 48.2768 300.321 54.8851 308.863 64.8867C317.405 74.8884 322.092 87.6228 322.078 100.787V100.786C322.107 131.242 297.402 156.043 267.007 156.072L266.954 156.072ZM266.999 46.3442C266.755 46.3442 266.511 46.3441 266.271 46.3478L265.76 46.359C236.404 47.0053 212.544 71.4679 212.571 100.89C212.6 130.919 236.992 155.33 266.954 155.331H267.006C296.993 155.303 321.367 130.834 321.339 100.787V100.787C321.353 87.7985 316.728 75.234 308.299 65.3663C299.871 55.4986 288.196 48.9793 275.387 46.9879L275.121 46.9462C274.301 46.8257 273.558 46.7306 272.862 46.657C271.546 46.5152 270.197 46.4212 268.852 46.3772C268.243 46.3552 267.622 46.3442 267.005 46.3442H266.999Z" fill="#CBCBCB"/>
            <path d="M225.148 103.746C225.256 103.574 224.975 103.201 224.519 102.912C224.063 102.623 223.606 102.527 223.498 102.698C223.389 102.87 223.671 103.243 224.127 103.532C224.583 103.821 225.04 103.917 225.148 103.746Z" fill="#3F3D56"/>
            <path d="M223.549 100.559C223.669 100.369 223.825 100.205 224.009 100.075C224.192 99.9456 224.399 99.8536 224.618 99.8043C224.837 99.755 225.064 99.7495 225.285 99.7879C225.506 99.8264 225.718 99.9081 225.907 100.028L247.567 113.772C247.757 113.892 247.921 114.049 248.05 114.233C248.179 114.417 248.271 114.624 248.32 114.844C248.37 115.063 248.375 115.29 248.337 115.512C248.298 115.733 248.217 115.945 248.097 116.135L223.549 100.559V100.559Z" fill="#10213A"/>
            <path d="M221.5 101.286L222.181 100.208C222.347 99.9457 222.61 99.7601 222.912 99.6921C223.215 99.6241 223.531 99.6792 223.793 99.8453L248.455 115.494C248.608 115.591 248.741 115.718 248.846 115.867C248.95 116.015 249.025 116.183 249.064 116.361C249.104 116.539 249.109 116.722 249.078 116.902C249.047 117.081 248.981 117.252 248.883 117.406L248.317 118.302L221.5 101.286H221.5Z" fill="#2F2E41"/>
            <path d="M225.172 101.878L224.911 102.292L226.561 103.339L226.823 102.926L225.172 101.878Z" fill="#D0CDE1"/>
            <path d="M227.441 103.318L227.18 103.732L228.83 104.779L229.091 104.365L227.441 103.318Z" fill="#D0CDE1"/>
            <path d="M267.151 51.6164C275.654 51.6164 282.546 44.7099 282.546 36.1903C282.546 27.6707 275.654 20.7642 267.151 20.7642C258.649 20.7642 251.756 27.6707 251.756 36.1903C251.756 44.7099 258.649 51.6164 267.151 51.6164Z" fill="#FFB8B8"/>
            <path d="M281.812 153.57C269.321 157.065 256 156.022 244.203 150.626L245.386 118.96L245.475 116.497L245.508 115.697L245.549 114.52L245.578 113.768C245.578 113.768 245.626 113.764 245.719 113.76C245.97 113.742 246.55 113.701 247.382 113.653C248.347 113.597 249.644 113.527 251.156 113.464C251.514 113.449 251.884 113.434 252.264 113.416C260.226 113.12 272.66 113.057 274.305 115.46L274.512 116.875L274.844 119.16L275.524 123.83C275.524 123.83 283.257 139.237 281.812 153.57Z" fill="#2F2E41"/>
            <path d="M285.721 73.7052L282.689 101.771L276.913 114.571L274.773 119.317L243.795 118.941L246.987 97.3067C242.481 85.6431 253.182 80.94 253.182 80.94L264.283 58.1502C264.283 58.1502 267.24 56.6687 274.961 56.2959C282.139 55.9492 276.48 57.0391 276.48 57.0391C285.868 56.0984 285.721 73.7052 285.721 73.7052Z" fill="#CCCCCC"/>
            <path opacity="0.2" d="M276.405 103.252L270.63 116.052C268.775 112.576 267.363 108.638 267.363 106.313C267.363 99.9168 273.747 103.303 273.747 103.303C273.747 103.303 268.584 74.9905 268.584 66.525C268.584 60.902 273.262 85.8565 276.405 103.252Z" fill="black"/>
            <path d="M284.894 26.7921C283.893 24.343 282.343 22.1571 280.366 20.4027C281.177 20.1302 281.854 19.5586 282.26 18.8039C282.852 17.6286 282.538 16.1548 281.733 15.1028C280.998 14.2141 280.048 13.5292 278.974 13.1138C279.761 13.4724 280.622 13.6384 281.486 13.5979C282.533 13.4888 283.58 12.6654 283.518 11.6438C283.458 10.6705 282.503 10.0124 281.645 9.50448C281.089 9.17499 280.533 8.84551 279.976 8.51606C280.141 8.19598 280.287 7.86593 280.411 7.52784C280.891 6.29871 281.007 4.95683 280.744 3.66339C280.482 2.36995 279.852 1.17995 278.931 0.236328C280.753 2.09465 280.288 4.97066 278.488 7.30461C278.43 7.37982 278.367 7.45317 278.307 7.5274C277.95 7.31618 277.594 7.10497 277.237 6.89376C276.348 6.36698 275.423 5.82788 274.39 5.70364C273.357 5.57941 272.18 5.98919 271.758 6.91262C271.307 7.90106 271.82 9.16246 271.232 10.0802C270.717 10.8833 269.593 11.0543 268.619 11.0162C267.645 10.9782 266.609 10.824 265.743 11.2557C264.538 11.8558 264.143 13.4788 264.679 14.6891C264.917 15.2047 265.272 15.6573 265.716 16.011C263.137 16.3717 260.597 17.1389 258.102 17.9192C255.159 18.8393 252.161 19.8166 249.702 21.6789C247.243 23.5412 245.379 26.481 245.614 29.561C245.848 32.641 248.902 37.4919 251.945 36.9995L252.408 35.5461C254.249 34.6696 256.316 34.3906 258.322 34.748C260.329 35.1054 262.174 36.0814 263.6 37.5399C263.635 35.6007 266.58 34.9565 268.048 36.2208C269.516 37.485 269.799 39.6226 269.913 41.5587C270.027 43.4949 270.135 45.603 271.407 47.0641C272.629 48.4665 274.71 48.9013 276.52 48.4835C278.331 48.0657 279.896 46.915 281.192 45.5817C285.895 40.7447 287.41 33.0572 284.894 26.7921Z" fill="#2F2E41"/>
            <path d="M235.79 117.088C236.587 117.662 237.5 118.055 238.465 118.238C239.43 118.421 240.423 118.39 241.374 118.146C242.325 117.903 243.212 117.454 243.972 116.83C244.731 116.206 245.345 115.423 245.769 114.536L287.708 115.367L290.483 106.158L242.211 105.289C240.676 104.673 238.97 104.642 237.414 105.203C235.858 105.764 234.562 106.876 233.771 108.331C232.979 109.785 232.747 111.48 233.12 113.094C233.492 114.708 234.442 116.129 235.79 117.088V117.088Z" fill="#FFB8B8"/>
            <path d="M276.563 55.5198C276.563 55.5198 266.8 56.2723 266.8 64.7379C266.8 73.2034 275.624 103.303 275.624 103.303C275.624 103.303 269.241 99.9169 269.241 106.313C269.241 112.709 279.942 131.333 281.069 118.917C281.069 118.917 297.215 126.819 296.276 111.957C295.337 97.095 285.199 65.6785 285.199 65.6785C285.199 65.6785 284.073 54.9554 276.563 55.5198Z" fill="#CCCCCC"/>
            </g>
            <defs>
            <clipPath id="clip0_419:849">
            <rect width="322" height="294" fill="white" transform="translate(0.078125 0.236328)"/>
            </clipPath>
            </defs>
          </svg> 