<svg width="21" height="33" viewBox="0 0 21 33" fill="none" xmlns="http://www.w3.org/2000/svg">
<g clip-path="url(#clip0_419:686)">
<path d="M18.5782 17.4749C18.1372 16.8903 17.621 16.3741 17.0398 15.9365C16.6295 15.6288 16.1851 15.3587 15.7133 15.1365C15.8979 14.904 16.0654 14.6544 16.2124 14.398C16.7389 13.492 17.0364 12.4425 17.0364 11.3211C17.0364 10.1997 16.7355 9.15016 16.2124 8.24418C15.6723 7.31084 14.8928 6.53136 13.9594 5.99119C13.4808 5.71426 12.9646 5.5023 12.421 5.35871V2.09033H9.34405V5.16726H7.80559V2.09033H4.72867V5.16726H0.113281V8.24418H1.65174V26.7057H0.113281V29.7826H4.72867V32.8596H7.80559V29.7826H9.34405V32.8596H12.421V29.7826C12.9475 29.7826 13.4637 29.7314 13.9594 29.6288C15.0945 29.3997 16.1406 28.9177 17.0364 28.2476C17.6176 27.81 18.1372 27.2903 18.5748 26.7091C19.5389 25.4237 20.1133 23.8237 20.1133 22.0938C20.1133 20.3638 19.5423 18.7604 18.5782 17.4749ZM4.73209 8.24418H10.8859C11.4466 8.24418 11.9731 8.39461 12.4244 8.65785C13.3441 9.18777 13.9629 10.1826 13.9629 11.3211C13.9629 12.4596 13.3441 13.4544 12.4244 13.9843C11.9731 14.2476 11.4466 14.398 10.8859 14.398H4.73209V8.24418ZM13.9629 26.4425C13.4808 26.6134 12.9646 26.7057 12.4244 26.7057H4.73209V17.4749H12.4244C12.9646 17.4749 13.4808 17.5673 13.9629 17.7382C15.7577 18.3741 17.0398 20.0835 17.0398 22.0903C17.0398 24.0972 15.7577 25.81 13.9629 26.4425Z" fill="#CCD2E3"/>
</g>
<defs>
<clipPath id="clip0_419:686">
<rect width="20" height="32.2165" fill="white" transform="translate(0.113281 0.643066)"/>
</clipPath>
</defs>
</svg>

