<svg width="31" height="31" viewBox="0 0 31 31" fill="none" xmlns="http://www.w3.org/2000/svg">
<path fill-rule="evenodd" clip-rule="evenodd" d="M9.33569 7.00122C9.36302 7.00123 9.39045 7.00123 9.41797 7.00123L22.0003 7.00122C23.1084 7.00116 24.0631 7.00111 24.8277 7.1039C25.6471 7.21407 26.4325 7.4625 27.0696 8.09958C27.7067 8.73665 27.9551 9.52209 28.0653 10.3415C28.1681 11.1061 28.168 12.0608 28.168 13.169V22.0835C28.168 23.1916 28.1681 24.1464 28.0653 24.911C27.9551 25.7304 27.7067 26.5158 27.0696 27.1529C26.4325 27.79 25.6471 28.0384 24.8277 28.1486C24.0631 28.2513 23.1084 28.2513 22.0002 28.2512H9.33572C8.2276 28.2513 7.27282 28.2513 6.50824 28.1486C5.68884 28.0384 4.9034 27.79 4.26632 27.1529C3.62925 26.5158 3.38082 25.7304 3.27065 24.911C3.16786 24.1464 3.16791 23.1916 3.16797 22.0835L3.16797 13.2512C3.16797 13.2237 3.16797 13.1963 3.16797 13.1689C3.16791 12.0608 3.16786 11.1061 3.27065 10.3415C3.38082 9.52209 3.62925 8.73665 4.26632 8.09958C4.9034 7.4625 5.68884 7.21407 6.50824 7.1039C7.27281 7.00111 8.22758 7.00116 9.33569 7.00122ZM6.84135 9.58161C6.29918 9.6545 6.12925 9.77219 6.03409 9.86734C5.93894 9.9625 5.82125 10.1324 5.74836 10.6746C5.67063 11.2527 5.66797 12.0374 5.66797 13.2512V22.0012C5.66797 23.2151 5.67063 23.9997 5.74836 24.5778C5.82125 25.12 5.93894 25.29 6.03409 25.3851C6.12925 25.4803 6.29918 25.5979 6.84135 25.6708C7.41949 25.7486 8.20413 25.7512 9.41797 25.7512H21.918C23.1318 25.7512 23.9165 25.7486 24.4946 25.6708C25.0368 25.5979 25.2067 25.4803 25.3019 25.3851C25.397 25.29 25.5147 25.12 25.5876 24.5778C25.6653 23.9997 25.668 23.2151 25.668 22.0012V13.2512C25.668 12.0374 25.6653 11.2527 25.5876 10.6746C25.5147 10.1324 25.397 9.9625 25.3019 9.86734C25.2067 9.77219 25.0368 9.6545 24.4946 9.58161C23.9165 9.50388 23.1318 9.50123 21.918 9.50123H9.41797C8.20413 9.50123 7.41949 9.50388 6.84135 9.58161Z" fill="#CCD2E3"/>
<path fill-rule="evenodd" clip-rule="evenodd" d="M4.41797 14.5012C4.41797 13.8109 4.97761 13.2512 5.66797 13.2512H25.668C26.3583 13.2512 26.918 13.8109 26.918 14.5012C26.918 15.1916 26.3583 15.7512 25.668 15.7512H5.66797C4.97761 15.7512 4.41797 15.1916 4.41797 14.5012Z" fill="#CCD2E3"/>
<path fill-rule="evenodd" clip-rule="evenodd" d="M10.668 20.7512C10.668 20.0609 11.2276 19.5012 11.918 19.5012H19.418C20.1083 19.5012 20.668 20.0609 20.668 20.7512C20.668 21.4416 20.1083 22.0012 19.418 22.0012H11.918C11.2276 22.0012 10.668 21.4416 10.668 20.7512Z" fill="#CCD2E3"/>
<path fill-rule="evenodd" clip-rule="evenodd" d="M10.668 3.25122C11.3583 3.25122 11.918 3.81086 11.918 4.50122L11.918 9.50122C11.918 10.1916 11.3583 10.7512 10.668 10.7512C9.97761 10.7512 9.41797 10.1916 9.41797 9.50122L9.41797 4.50122C9.41797 3.81086 9.97761 3.25122 10.668 3.25122Z" fill="#CCD2E3"/>
<path fill-rule="evenodd" clip-rule="evenodd" d="M20.668 3.25122C21.3583 3.25122 21.918 3.81086 21.918 4.50122L21.918 9.50122C21.918 10.1916 21.3583 10.7512 20.668 10.7512C19.9776 10.7512 19.418 10.1916 19.418 9.50122L19.418 4.50122C19.418 3.81086 19.9776 3.25122 20.668 3.25122Z" fill="#CCD2E3"/>
</svg>
