<svg width="31" height="31" viewBox="0 0 31 31" fill="none" xmlns="http://www.w3.org/2000/svg">
<path fill-rule="evenodd" clip-rule="evenodd" d="M25.7133 8.25123C25.7359 8.25123 25.7586 8.25124 25.7813 8.25124C25.804 8.25124 25.8266 8.25123 25.8493 8.25123C26.3794 8.25113 26.8945 8.25102 27.3194 8.30815C27.7984 8.37255 28.345 8.52945 28.799 8.98347C29.2531 9.43749 29.41 9.98409 29.4744 10.4631C29.5315 10.888 29.5314 11.4031 29.5313 11.9332C29.5313 11.9559 29.5313 11.9785 29.5313 12.0012V23.2512C29.5313 23.2739 29.5313 23.2966 29.5313 23.3193C29.5314 23.8493 29.5315 24.3645 29.4744 24.7894C29.41 25.2684 29.2531 25.815 28.799 26.269C28.345 26.723 27.7984 26.8799 27.3194 26.9443C26.8945 27.0015 26.3794 27.0014 25.8493 27.0012C25.8266 27.0012 25.804 27.0012 25.7813 27.0012C25.7586 27.0012 25.7359 27.0012 25.7133 27.0012C25.1832 27.0014 24.668 27.0015 24.2431 26.9443C23.7641 26.8799 23.2175 26.723 22.7635 26.269C22.3095 25.815 22.1526 25.2684 22.0882 24.7894C22.0311 24.3645 22.0312 23.8493 22.0313 23.3193C22.0313 23.2966 22.0313 23.2739 22.0313 23.2512V12.0012C22.0313 11.9785 22.0313 11.9559 22.0313 11.9332C22.0312 11.4031 22.0311 10.888 22.0882 10.4631C22.1526 9.98409 22.3095 9.43749 22.7635 8.98347C23.2175 8.52945 23.7641 8.37255 24.2431 8.30815C24.668 8.25102 25.1832 8.25113 25.7133 8.25123ZM24.5671 10.7871C24.5667 10.7901 24.5663 10.7931 24.5659 10.7962C24.5339 11.0339 24.5313 11.3766 24.5313 12.0012V23.2512C24.5313 23.8758 24.5339 24.2185 24.5659 24.4563C24.5663 24.4594 24.5667 24.4624 24.5671 24.4654C24.5701 24.4658 24.5731 24.4662 24.5762 24.4666C24.814 24.4986 25.1567 24.5012 25.7813 24.5012C26.4059 24.5012 26.7486 24.4986 26.9863 24.4666C26.9894 24.4662 26.9924 24.4658 26.9954 24.4654C26.9958 24.4624 26.9962 24.4594 26.9966 24.4563C27.0286 24.2185 27.0313 23.8758 27.0313 23.2512V12.0012C27.0313 11.3766 27.0286 11.0339 26.9966 10.7962C26.9962 10.7931 26.9958 10.7901 26.9954 10.7871C26.9924 10.7867 26.9894 10.7863 26.9863 10.7859C26.7486 10.7539 26.4059 10.7512 25.7813 10.7512C25.1567 10.7512 24.814 10.7539 24.5762 10.7859C24.5731 10.7863 24.5701 10.7867 24.5671 10.7871Z" fill="#CCD2E3"/>
<path fill-rule="evenodd" clip-rule="evenodd" d="M15.7133 15.7512C15.7359 15.7512 15.7586 15.7512 15.7813 15.7512C15.804 15.7512 15.8266 15.7512 15.8493 15.7512C16.3794 15.7511 16.8945 15.751 17.3194 15.8081C17.7984 15.8725 18.345 16.0295 18.799 16.4835C19.2531 16.9375 19.41 17.4841 19.4744 17.9631C19.5315 18.388 19.5314 18.9031 19.5313 19.4332C19.5313 19.4559 19.5313 19.4785 19.5313 19.5012V23.2512C19.5313 23.2739 19.5313 23.2966 19.5313 23.3193C19.5314 23.8493 19.5315 24.3645 19.4744 24.7894C19.41 25.2684 19.2531 25.815 18.799 26.269C18.345 26.723 17.7984 26.8799 17.3194 26.9443C16.8945 27.0015 16.3794 27.0014 15.8493 27.0012C15.8266 27.0012 15.804 27.0012 15.7813 27.0012C15.7586 27.0012 15.7359 27.0012 15.7133 27.0012C15.1832 27.0014 14.668 27.0015 14.2431 26.9443C13.7641 26.8799 13.2175 26.723 12.7635 26.269C12.3095 25.815 12.1526 25.2684 12.0882 24.7894C12.0311 24.3645 12.0312 23.8493 12.0313 23.3192C12.0313 23.2966 12.0313 23.2739 12.0313 23.2512V19.5012C12.0313 19.4785 12.0313 19.4559 12.0313 19.4332C12.0312 18.9031 12.0311 18.388 12.0882 17.9631C12.1526 17.4841 12.3095 16.9375 12.7635 16.4835C13.2175 16.0295 13.7641 15.8725 14.2431 15.8081C14.668 15.751 15.1832 15.7511 15.7133 15.7512ZM14.5671 18.2871C14.5667 18.2901 14.5663 18.2931 14.5659 18.2962C14.5339 18.5339 14.5313 18.8766 14.5313 19.5012V23.2512C14.5313 23.8758 14.5339 24.2185 14.5659 24.4563C14.5663 24.4594 14.5667 24.4624 14.5671 24.4654C14.5701 24.4658 14.5731 24.4662 14.5762 24.4666C14.814 24.4986 15.1567 24.5012 15.7813 24.5012C16.4059 24.5012 16.7486 24.4986 16.9863 24.4666C16.9894 24.4662 16.9924 24.4658 16.9954 24.4654C16.9958 24.4624 16.9962 24.4594 16.9966 24.4563C17.0286 24.2185 17.0313 23.8758 17.0313 23.2512V19.5012C17.0313 18.8766 17.0286 18.5339 16.9966 18.2962C16.9962 18.2931 16.9958 18.2901 16.9954 18.2871C16.9924 18.2867 16.9894 18.2863 16.9863 18.2859C16.7486 18.2539 16.4059 18.2512 15.7813 18.2512C15.1567 18.2512 14.814 18.2539 14.5762 18.2859C14.5731 18.2863 14.5701 18.2867 14.5671 18.2871Z" fill="#CCD2E3"/>
<path fill-rule="evenodd" clip-rule="evenodd" d="M5.71326 10.7512C5.7359 10.7512 5.75857 10.7512 5.78127 10.7512C5.80396 10.7512 5.82663 10.7512 5.84928 10.7512C6.37936 10.7511 6.89452 10.751 7.31942 10.8081C7.79842 10.8725 8.34502 11.0295 8.79904 11.4835C9.25305 11.9375 9.40996 12.4841 9.47436 12.9631C9.53148 13.388 9.53138 13.9031 9.53128 14.4332C9.53127 14.4559 9.53127 14.4785 9.53127 14.5012V23.2512C9.53127 23.2739 9.53127 23.2966 9.53128 23.3193C9.53138 23.8493 9.53148 24.3645 9.47436 24.7894C9.40996 25.2684 9.25305 25.815 8.79904 26.269C8.34502 26.723 7.79842 26.8799 7.31942 26.9443C6.89452 27.0015 6.37937 27.0014 5.84928 27.0013C5.82664 27.0012 5.80396 27.0012 5.78127 27.0012C5.75857 27.0012 5.7359 27.0012 5.71325 27.0013C5.18317 27.0014 4.66801 27.0015 4.24312 26.9443C3.76412 26.8799 3.21752 26.723 2.7635 26.269C2.30948 25.815 2.15258 25.2684 2.08818 24.7894C2.03105 24.3645 2.03115 23.8493 2.03126 23.3193C2.03126 23.2966 2.03127 23.2739 2.03127 23.2512V14.5012C2.03127 14.4785 2.03126 14.4559 2.03126 14.4332C2.03115 13.9031 2.03105 13.388 2.08818 12.9631C2.15258 12.4841 2.30948 11.9375 2.7635 11.4835C3.21752 11.0295 3.76412 10.8725 4.24312 10.8081C4.66801 10.751 5.18317 10.7511 5.71326 10.7512ZM4.56713 13.2871C4.56672 13.2901 4.5663 13.2931 4.56589 13.2962C4.53392 13.5339 4.53127 13.8766 4.53127 14.5012V23.2512C4.53127 23.8758 4.53392 24.2185 4.56589 24.4563C4.5663 24.4594 4.56672 24.4624 4.56713 24.4654C4.57011 24.4658 4.57314 24.4662 4.57624 24.4666C4.81398 24.4986 5.15667 24.5012 5.78127 24.5012C6.40586 24.5012 6.74856 24.4986 6.9863 24.4666C6.9894 24.4662 6.99243 24.4658 6.9954 24.4654C6.99582 24.4624 6.99623 24.4594 6.99665 24.4563C7.02861 24.2185 7.03127 23.8758 7.03127 23.2512V14.5012C7.03127 13.8766 7.02861 13.5339 6.99665 13.2962C6.99623 13.2931 6.99582 13.2901 6.9954 13.2871C6.99243 13.2867 6.9894 13.2863 6.9863 13.2859C6.74856 13.2539 6.40586 13.2512 5.78127 13.2512C5.15667 13.2512 4.81398 13.2539 4.57624 13.2859C4.57314 13.2863 4.57011 13.2867 4.56713 13.2871Z" fill="#CCD2E3"/>
</svg>
