<svg width="31" height="31" viewBox="0 0 31 31" fill="none" xmlns="http://www.w3.org/2000/svg">
<g clip-path="url(#clip0_419:741)">
<path d="M22.1406 18.2512C22.1406 18.5828 22.0089 18.9007 21.7745 19.1351C21.5401 19.3696 21.2221 19.5012 20.8906 19.5012H10.8906C10.5591 19.5012 10.2412 19.3696 10.0067 19.1351C9.77232 18.9007 9.64062 18.5828 9.64062 18.2512C9.64062 17.9197 9.77232 17.6018 10.0067 17.3674C10.2412 17.1329 10.5591 17.0012 10.8906 17.0012H20.8906C21.2221 17.0012 21.5401 17.1329 21.7745 17.3674C22.0089 17.6018 22.1406 17.9197 22.1406 18.2512ZM17.1406 22.0012H10.8906C10.5591 22.0012 10.2412 22.1329 10.0067 22.3674C9.77232 22.6018 9.64062 22.9197 9.64062 23.2512C9.64062 23.5828 9.77232 23.9007 10.0067 24.1351C10.2412 24.3696 10.5591 24.5012 10.8906 24.5012H17.1406C17.4721 24.5012 17.7901 24.3696 18.0245 24.1351C18.2589 23.9007 18.3906 23.5828 18.3906 23.2512C18.3906 22.9197 18.2589 22.6018 18.0245 22.3674C17.7901 22.1329 17.4721 22.0012 17.1406 22.0012ZM28.3906 13.8575V24.5012C28.3886 26.1582 27.7295 27.7468 26.5579 28.9185C25.3862 30.0901 23.7976 30.7493 22.1406 30.7512H9.64062C7.98363 30.7493 6.39507 30.0901 5.2234 28.9185C4.05173 27.7468 3.39261 26.1582 3.39062 24.5012V7.00125C3.39261 5.34426 4.05173 3.7557 5.2234 2.58402C6.39507 1.41235 7.98363 0.753234 9.64062 0.75125H15.2844C16.4339 0.748291 17.5726 0.973234 18.6347 1.41307C19.6967 1.85291 20.661 2.49892 21.4719 3.31375L25.8269 7.67125C26.6422 8.48155 27.2886 9.44557 27.7287 10.5075C28.1687 11.5694 28.3937 12.708 28.3906 13.8575ZM19.7044 5.08125C19.311 4.7002 18.8693 4.3724 18.3906 4.10625V9.50125C18.3906 9.83277 18.5223 10.1507 18.7567 10.3851C18.9912 10.6196 19.3091 10.7512 19.6406 10.7512H25.0356C24.7693 10.2727 24.4411 9.83143 24.0594 9.43875L19.7044 5.08125ZM25.8906 13.8575C25.8906 13.6512 25.8506 13.4537 25.8319 13.2512H19.6406C18.6461 13.2512 17.6922 12.8562 16.989 12.1529C16.2857 11.4496 15.8906 10.4958 15.8906 9.50125V3.31C15.6881 3.29125 15.4894 3.25125 15.2844 3.25125H9.64062C8.64606 3.25125 7.69224 3.64634 6.98897 4.3496C6.28571 5.05286 5.89062 6.00669 5.89062 7.00125V24.5012C5.89062 25.4958 6.28571 26.4496 6.98897 27.1529C7.69224 27.8562 8.64606 28.2512 9.64062 28.2512H22.1406C23.1352 28.2512 24.089 27.8562 24.7923 27.1529C25.4955 26.4496 25.8906 25.4958 25.8906 24.5012V13.8575Z" fill="#CCD2E3"/>
</g>
<defs>
<clipPath id="clip0_419:741">
<rect width="30" height="30" fill="white" transform="translate(0.890625 0.751221)"/>
</clipPath>
</defs>
</svg>
