<svg width="31" height="31" viewBox="0 0 31 31" fill="none" xmlns="http://www.w3.org/2000/svg">
<g clip-path="url(#clip0_419:701)">
<path d="M30.1309 11.7438C29.8752 10.9299 29.3644 10.2199 28.674 9.71883C27.9836 9.21773 27.1502 8.95212 26.2972 8.96129H20.8359L19.1772 3.79129C18.9163 2.97748 18.4038 2.26755 17.7134 1.76387C17.023 1.26018 16.1905 0.98877 15.3359 0.98877C14.4814 0.98877 13.6488 1.26018 12.9585 1.76387C12.2681 2.26755 11.7555 2.97748 11.4947 3.79129L9.83593 8.96129H4.37468C3.52436 8.9625 2.69617 9.23239 2.00841 9.73242C1.32064 10.2324 0.808485 10.937 0.545086 11.7455C0.281687 12.554 0.280521 13.4251 0.541755 14.2343C0.802989 15.0435 1.31326 15.7494 1.99968 16.2513L6.44468 19.5013L4.75468 24.735C4.48157 25.5468 4.47811 26.425 4.74482 27.2389C5.01153 28.0528 5.53412 28.7586 6.23468 29.2513C6.92325 29.7598 7.75768 30.0322 8.61363 30.0279C9.46958 30.0236 10.3012 29.7429 10.9847 29.2275L15.3359 26.025L19.6884 29.2238C20.3758 29.7293 21.2057 30.0039 22.0589 30.0081C22.9121 30.0123 23.7447 29.7458 24.4369 29.2469C25.1291 28.7481 25.6453 28.0426 25.9113 27.2319C26.1773 26.4212 26.1793 25.547 25.9172 24.735L24.2272 19.5013L28.6772 16.2513C29.3715 15.7557 29.8877 15.0498 30.1495 14.238C30.4114 13.4262 30.4048 12.5516 30.1309 11.7438ZM27.2022 14.2325L22.0222 18.0188C21.8094 18.174 21.6511 18.3924 21.5699 18.643C21.4886 18.8935 21.4885 19.1632 21.5697 19.4138L23.5384 25.5013C23.6381 25.81 23.6372 26.1424 23.536 26.4507C23.4348 26.7589 23.2385 27.0271 22.9752 27.2168C22.712 27.4064 22.3954 27.5076 22.071 27.506C21.7465 27.5043 21.431 27.3998 21.1697 27.2075L16.0759 23.4575C15.8614 23.2999 15.6021 23.215 15.3359 23.215C15.0697 23.215 14.8105 23.2999 14.5959 23.4575L9.50218 27.2075C9.24104 27.4024 8.92461 27.5091 8.59877 27.512C8.27293 27.515 7.95461 27.4141 7.68997 27.224C7.42533 27.0339 7.22812 26.7644 7.12693 26.4546C7.02574 26.1449 7.02583 25.811 7.12718 25.5013L9.10219 19.4138C9.18333 19.1632 9.18327 18.8935 9.10201 18.643C9.02075 18.3924 8.86245 18.174 8.64968 18.0188L3.46968 14.2325C3.20881 14.0415 3.01498 13.773 2.91586 13.4652C2.81675 13.1575 2.81742 12.8263 2.91779 12.5189C3.01816 12.2116 3.21309 11.9438 3.47474 11.7539C3.73638 11.5639 4.05136 11.4615 4.37468 11.4613H10.7497C11.0143 11.4613 11.2721 11.3773 11.486 11.2214C11.6998 11.0655 11.8587 10.8457 11.9397 10.5938L13.8772 4.55504C13.9766 4.24602 14.1716 3.97652 14.4339 3.78535C14.6963 3.59417 15.0126 3.49117 15.3372 3.49117C15.6618 3.49117 15.9781 3.59417 16.2404 3.78535C16.5028 3.97652 16.6977 4.24602 16.7972 4.55504L18.7347 10.5938C18.8157 10.8457 18.9745 11.0655 19.1884 11.2214C19.4022 11.3773 19.66 11.4613 19.9247 11.4613H26.2997C26.623 11.4615 26.938 11.5639 27.1996 11.7539C27.4613 11.9438 27.6562 12.2116 27.7566 12.5189C27.857 12.8263 27.8576 13.1575 27.7585 13.4652C27.6594 13.773 27.4656 14.0415 27.2047 14.2325H27.2022Z" fill="#CCD2E3"/>
</g>
<defs>
<clipPath id="clip0_419:701">
<rect width="30" height="30" fill="white" transform="translate(0.335938 0.751221)"/>
</clipPath>
</defs>
</svg>