<svg width="31" height="31" viewBox="0 0 31 31" fill="none" xmlns="http://www.w3.org/2000/svg">
<g clip-path="url(#clip0_419:709)">
<path d="M24.7248 19.085C23.7797 19.0858 22.849 19.3165 22.0129 19.7573C21.1769 20.1981 20.4607 20.8357 19.9261 21.615L11.7898 17.9413C12.3677 16.5458 12.37 14.9784 11.7961 13.5813L19.9211 9.88879C20.7134 11.0347 21.8902 11.8587 23.2381 12.2113C24.5859 12.5639 26.0155 12.4218 27.2675 11.8107C28.5195 11.1995 29.511 10.1599 30.0621 8.88037C30.6133 7.60083 30.6876 6.16613 30.2715 4.8365C29.8555 3.50688 28.9767 2.37041 27.7945 1.63323C26.6123 0.896053 25.205 0.607002 23.828 0.818506C22.451 1.03001 21.1953 1.72806 20.2889 2.78604C19.3824 3.84402 18.8852 5.19184 18.8873 6.58504C18.8926 6.91479 18.9261 7.24348 18.9873 7.56754L10.3498 11.4925C9.52024 10.7153 8.4817 10.1973 7.36179 10.0022C6.24187 9.80714 5.08935 9.94343 4.04583 10.3944C3.00231 10.8453 2.11323 11.5912 1.48782 12.5405C0.862404 13.4898 0.527902 14.6011 0.525405 15.7378C0.522907 16.8746 0.852522 17.9874 1.47376 18.9394C2.09499 19.8914 2.98078 20.6412 4.02232 21.0968C5.06385 21.5523 6.21575 21.6936 7.33652 21.5034C8.45728 21.3133 9.49809 20.7999 10.3311 20.0263L18.9911 23.9363C18.9309 24.2601 18.8979 24.5883 18.8923 24.9175C18.8921 26.0714 19.234 27.1995 19.875 28.1591C20.5159 29.1186 21.427 29.8665 22.493 30.3082C23.559 30.7499 24.7321 30.8656 25.8639 30.6405C26.9956 30.4154 28.0352 29.8598 28.8512 29.0439C29.6671 28.2279 30.2227 27.1883 30.4478 26.0566C30.6728 24.9248 30.5572 23.7518 30.1155 22.6857C29.6738 21.6197 28.9259 20.7086 27.9663 20.0677C27.0068 19.4268 25.8787 19.0848 24.7248 19.085ZM24.7248 3.25129C25.3842 3.25104 26.0289 3.44635 26.5773 3.81252C27.1257 4.17868 27.5532 4.69926 27.8057 5.3084C28.0582 5.91754 28.1244 6.58789 27.9959 7.23465C27.8674 7.88142 27.55 8.47555 27.0838 8.94191C26.6176 9.40827 26.0236 9.7259 25.3769 9.85464C24.7302 9.98337 24.0598 9.91743 23.4506 9.66514C22.8414 9.41285 22.3206 8.98556 21.9542 8.4373C21.5879 7.88904 21.3923 7.24444 21.3923 6.58504C21.393 5.70129 21.7443 4.85391 22.369 4.22889C22.9938 3.60387 23.8411 3.25228 24.7248 3.25129ZM6.39232 19.085C5.73291 19.0853 5.08824 18.89 4.53985 18.5238C3.99145 18.1576 3.56396 17.6371 3.31145 17.0279C3.05893 16.4188 2.99273 15.7484 3.12123 15.1017C3.24972 14.4549 3.56713 13.8608 4.03331 13.3944C4.49949 12.9281 5.09351 12.6104 5.74023 12.4817C6.38695 12.3529 7.05732 12.4189 7.66655 12.6712C8.27579 12.9235 8.79652 13.3508 9.1629 13.899C9.52927 14.4473 9.72482 15.0919 9.72482 15.7513C9.72383 16.6349 9.37245 17.4821 8.74773 18.1071C8.12302 18.732 7.27596 19.0837 6.39232 19.085ZM24.7248 28.2513C24.0655 28.2513 23.4209 28.0558 22.8727 27.6894C22.3245 27.3231 21.8972 26.8025 21.6448 26.1933C21.3925 25.5841 21.3265 24.9138 21.4551 24.2672C21.5838 23.6205 21.9013 23.0265 22.3675 22.5602C22.8337 22.094 23.4278 21.7765 24.0744 21.6478C24.7211 21.5192 25.3914 21.5852 26.0006 21.8376C26.6098 22.0899 27.1304 22.5172 27.4967 23.0654C27.863 23.6136 28.0586 24.2582 28.0586 24.9175C28.0579 25.8015 27.7065 26.6491 27.0814 27.2741C26.4564 27.8992 25.6088 28.2506 24.7248 28.2513Z" fill="#CCD2E3"/>
</g>
<defs>
<clipPath id="clip0_419:709">
<rect width="30" height="30" fill="white" transform="translate(0.558594 0.751221)"/>
</clipPath>
</defs>
</svg>
