<svg width="31" height="31" viewBox="0 0 31 31" fill="none" xmlns="http://www.w3.org/2000/svg">
<g clip-path="url(#clip0_419:692)">
<path d="M17.529 22.3348L13.4515 26.4123C12.2677 27.5645 10.6778 28.2043 9.02581 28.1932C7.37385 28.1821 5.79268 27.5211 4.62438 26.3531C3.45608 25.1852 2.79461 23.6042 2.78307 21.9522C2.77154 20.3003 3.41087 18.7102 4.56274 17.526L8.64025 13.4448C8.87463 13.2102 9.00624 12.8922 9.00612 12.5606C9.00601 12.229 8.87417 11.9111 8.63962 11.6767C8.40507 11.4423 8.08702 11.3107 7.75543 11.3108C7.42384 11.3109 7.10588 11.4427 6.87149 11.6773L2.79524 15.7585C1.14808 17.4065 0.223047 19.6414 0.223633 21.9714C0.224219 24.3014 1.15038 26.5358 2.79837 28.1829C4.44636 29.8301 6.68118 30.7551 9.01121 30.7545C11.3412 30.7539 13.5756 29.8278 15.2227 28.1798L19.3002 24.1023C19.5279 23.8665 19.6539 23.5508 19.6511 23.223C19.6482 22.8953 19.5168 22.5818 19.285 22.35C19.0533 22.1183 18.7397 21.9868 18.412 21.9839C18.0843 21.9811 17.7685 22.1071 17.5327 22.3348H17.529Z" fill="#CCD2E3"/>
<path d="M27.6528 3.3275C26.8394 2.50852 25.8715 1.8591 24.8053 1.41687C23.7391 0.974643 22.5958 0.7484 21.4415 0.751252V0.751252C20.2878 0.748187 19.145 0.973849 18.0791 1.41519C17.0132 1.85653 16.0453 2.5048 15.2315 3.3225L11.1478 7.40125C10.9132 7.63564 10.7814 7.9536 10.7813 8.28518C10.7811 8.61677 10.9127 8.93483 11.1471 9.16938C11.3815 9.40393 11.6995 9.53576 12.0311 9.53588C12.3626 9.536 12.6807 9.40439 12.9153 9.17L16.9965 5.0925C17.5784 4.50706 18.2707 4.04288 19.0333 3.72683C19.7959 3.41077 20.6135 3.24913 21.439 3.25125V3.25125C22.6818 3.25166 23.8966 3.62054 24.9299 4.31125C25.9631 5.00196 26.7683 5.9835 27.2438 7.13178C27.7193 8.28006 27.8436 9.54353 27.6011 10.7625C27.3587 11.9814 26.7602 13.1011 25.8815 13.98L21.804 18.0575C21.5695 18.2921 21.4377 18.6102 21.4377 18.9419C21.4377 19.2736 21.5695 19.5917 21.804 19.8263C22.0386 20.0608 22.3567 20.1926 22.6884 20.1926C23.0201 20.1926 23.3382 20.0608 23.5728 19.8263L27.6503 15.7513C29.2953 14.1026 30.2194 11.8689 30.2199 9.53989C30.2203 7.21091 29.2971 4.97679 27.6528 3.3275V3.3275Z" fill="#CCD2E3"/>
<path d="M18.0886 11.1175L10.5886 18.6175C10.4693 18.7328 10.374 18.8707 10.3085 19.0232C10.243 19.1757 10.2085 19.3398 10.2071 19.5057C10.2056 19.6717 10.2373 19.8363 10.3001 19.9899C10.363 20.1435 10.4558 20.2831 10.5731 20.4005C10.6905 20.5178 10.8301 20.6107 10.9837 20.6735C11.1373 20.7364 11.3019 20.768 11.4679 20.7665C11.6339 20.7651 11.7979 20.7306 11.9504 20.6651C12.1029 20.5996 12.2408 20.5044 12.3561 20.385L19.8561 12.885C20.0838 12.6492 20.2098 12.3335 20.207 12.0057C20.2041 11.678 20.0727 11.3645 19.8409 11.1327C19.6092 10.901 19.2956 10.7695 18.9679 10.7666C18.6401 10.7638 18.3244 10.8898 18.0886 11.1175Z" fill="#CCD2E3"/>
</g>
<defs>
<clipPath id="clip0_419:692">
<rect width="30" height="30" fill="#CCD2E3" transform="translate(0.222656 0.751221)"/>
</clipPath>
</defs>
</svg>
