<svg width="30" height="31" viewBox="0 0 30 31" fill="none" xmlns="http://www.w3.org/2000/svg">
<g clip-path="url(#clip0_419:677)">
<path d="M23.75 5.75122H18.75V4.50122C18.75 3.50666 18.3549 2.55283 17.6517 1.84957C16.9484 1.14631 15.9946 0.751221 15 0.751221C14.0054 0.751221 13.0516 1.14631 12.3483 1.84957C11.6451 2.55283 11.25 3.50666 11.25 4.50122V5.75122H6.25C4.59301 5.75321 3.00445 6.41232 1.83277 7.584C0.661102 8.75567 0.00198482 10.3442 0 12.0012L0 24.5012C0.00198482 26.1582 0.661102 27.7468 1.83277 28.9184C3.00445 30.0901 4.59301 30.7492 6.25 30.7512H23.75C25.407 30.7492 26.9956 30.0901 28.1672 28.9184C29.3389 27.7468 29.998 26.1582 30 24.5012V12.0012C29.998 10.3442 29.3389 8.75567 28.1672 7.584C26.9956 6.41232 25.407 5.75321 23.75 5.75122ZM13.75 4.50122C13.75 4.1697 13.8817 3.85176 14.1161 3.61734C14.3505 3.38292 14.6685 3.25122 15 3.25122C15.3315 3.25122 15.6495 3.38292 15.8839 3.61734C16.1183 3.85176 16.25 4.1697 16.25 4.50122V7.00122C16.25 7.33274 16.1183 7.65068 15.8839 7.8851C15.6495 8.11952 15.3315 8.25122 15 8.25122C14.6685 8.25122 14.3505 8.11952 14.1161 7.8851C13.8817 7.65068 13.75 7.33274 13.75 7.00122V4.50122ZM27.5 24.5012C27.5 25.4958 27.1049 26.4496 26.4017 27.1529C25.6984 27.8561 24.7446 28.2512 23.75 28.2512H6.25C5.25544 28.2512 4.30161 27.8561 3.59835 27.1529C2.89509 26.4496 2.5 25.4958 2.5 24.5012V12.0012C2.5 11.0067 2.89509 10.0528 3.59835 9.34957C4.30161 8.64631 5.25544 8.25122 6.25 8.25122H11.48C11.7346 8.9819 12.2102 9.61526 12.8409 10.0634C13.4717 10.5116 14.2262 10.7524 15 10.7524C15.7738 10.7524 16.5283 10.5116 17.1591 10.0634C17.7898 9.61526 18.2654 8.9819 18.52 8.25122H23.75C24.7446 8.25122 25.6984 8.64631 26.4017 9.34957C27.1049 10.0528 27.5 11.0067 27.5 12.0012V24.5012ZM12.5 13.2512H6.25C5.91848 13.2512 5.60054 13.3829 5.36612 13.6173C5.1317 13.8518 5 14.1697 5 14.5012V24.5012C5 24.8327 5.1317 25.1507 5.36612 25.3851C5.60054 25.6195 5.91848 25.7512 6.25 25.7512H12.5C12.8315 25.7512 13.1495 25.6195 13.3839 25.3851C13.6183 25.1507 13.75 24.8327 13.75 24.5012V14.5012C13.75 14.1697 13.6183 13.8518 13.3839 13.6173C13.1495 13.3829 12.8315 13.2512 12.5 13.2512ZM11.25 23.2512H7.5V15.7512H11.25V23.2512ZM25 19.5012C25 19.8327 24.8683 20.1507 24.6339 20.3851C24.3995 20.6195 24.0815 20.7512 23.75 20.7512H17.5C17.1685 20.7512 16.8505 20.6195 16.6161 20.3851C16.3817 20.1507 16.25 19.8327 16.25 19.5012C16.25 19.1697 16.3817 18.8518 16.6161 18.6173C16.8505 18.3829 17.1685 18.2512 17.5 18.2512H23.75C24.0815 18.2512 24.3995 18.3829 24.6339 18.6173C24.8683 18.8518 25 19.1697 25 19.5012ZM25 14.5012C25 14.8327 24.8683 15.1507 24.6339 15.3851C24.3995 15.6195 24.0815 15.7512 23.75 15.7512H17.5C17.1685 15.7512 16.8505 15.6195 16.6161 15.3851C16.3817 15.1507 16.25 14.8327 16.25 14.5012C16.25 14.1697 16.3817 13.8518 16.6161 13.6173C16.8505 13.3829 17.1685 13.2512 17.5 13.2512H23.75C24.0815 13.2512 24.3995 13.3829 24.6339 13.6173C24.8683 13.8518 25 14.1697 25 14.5012ZM22.5 24.5012C22.5 24.8327 22.3683 25.1507 22.1339 25.3851C21.8995 25.6195 21.5815 25.7512 21.25 25.7512H17.5C17.1685 25.7512 16.8505 25.6195 16.6161 25.3851C16.3817 25.1507 16.25 24.8327 16.25 24.5012C16.25 24.1697 16.3817 23.8518 16.6161 23.6173C16.8505 23.3829 17.1685 23.2512 17.5 23.2512H21.25C21.5815 23.2512 21.8995 23.3829 22.1339 23.6173C22.3683 23.8518 22.5 24.1697 22.5 24.5012Z" fill="#CCD2E3"/>
</g>
<defs>
<clipPath id="clip0_419:677">
<rect width="30" height="30" fill="white" transform="translate(0 0.751221)"/>
</clipPath>
</defs>
</svg>
