<svg width="31" height="31" viewBox="0 0 31 31" fill="none" xmlns="http://www.w3.org/2000/svg">
<g clip-path="url(#clip0_419:729)">
<path d="M24.1953 2.00122H6.69531C5.03832 2.00321 3.44976 2.66232 2.27809 3.834C1.10641 5.00567 0.447297 6.59423 0.445313 8.25122L0.445312 23.2512C0.447297 24.9082 1.10641 26.4968 2.27809 27.6684C3.44976 28.8401 5.03832 29.4992 6.69531 29.5012H24.1953C25.8523 29.4992 27.4409 28.8401 28.6125 27.6684C29.7842 26.4968 30.4433 24.9082 30.4453 23.2512V8.25122C30.4433 6.59423 29.7842 5.00567 28.6125 3.834C27.4409 2.66232 25.8523 2.00321 24.1953 2.00122ZM6.69531 4.50122H24.1953C25.1899 4.50122 26.1437 4.89631 26.847 5.59957C27.5502 6.30283 27.9453 7.25666 27.9453 8.25122V9.50122H2.94531V8.25122C2.94531 7.25666 3.3404 6.30283 4.04366 5.59957C4.74692 4.89631 5.70075 4.50122 6.69531 4.50122ZM24.1953 27.0012H6.69531C5.70075 27.0012 4.74692 26.6061 4.04366 25.9029C3.3404 25.1996 2.94531 24.2458 2.94531 23.2512V12.0012H27.9453V23.2512C27.9453 24.2458 27.5502 25.1996 26.847 25.9029C26.1437 26.6061 25.1899 27.0012 24.1953 27.0012ZM24.1953 17.0012C24.1953 17.3327 24.0636 17.6507 23.8292 17.8851C23.5948 18.1195 23.2768 18.2512 22.9453 18.2512H7.94531C7.61379 18.2512 7.29585 18.1195 7.06143 17.8851C6.82701 17.6507 6.69531 17.3327 6.69531 17.0012C6.69531 16.6697 6.82701 16.3518 7.06143 16.1173C7.29585 15.8829 7.61379 15.7512 7.94531 15.7512H22.9453C23.2768 15.7512 23.5948 15.8829 23.8292 16.1173C24.0636 16.3518 24.1953 16.6697 24.1953 17.0012ZM19.1953 22.0012C19.1953 22.3327 19.0636 22.6507 18.8292 22.8851C18.5948 23.1195 18.2768 23.2512 17.9453 23.2512H7.94531C7.61379 23.2512 7.29585 23.1195 7.06143 22.8851C6.82701 22.6507 6.69531 22.3327 6.69531 22.0012C6.69531 21.6697 6.82701 21.3518 7.06143 21.1173C7.29585 20.8829 7.61379 20.7512 7.94531 20.7512H17.9453C18.2768 20.7512 18.5948 20.8829 18.8292 21.1173C19.0636 21.3518 19.1953 21.6697 19.1953 22.0012ZM4.19531 7.00122C4.19531 6.75399 4.26862 6.51232 4.40598 6.30676C4.54333 6.1012 4.73855 5.94098 4.96696 5.84637C5.19537 5.75176 5.4467 5.72701 5.68918 5.77524C5.93165 5.82347 6.15438 5.94252 6.3292 6.11734C6.50401 6.29215 6.62306 6.51488 6.67129 6.75736C6.71953 6.99983 6.69477 7.25117 6.60016 7.47957C6.50555 7.70798 6.34534 7.90321 6.13978 8.04056C5.93421 8.17791 5.69254 8.25122 5.44531 8.25122C5.11379 8.25122 4.79585 8.11952 4.56143 7.8851C4.32701 7.65068 4.19531 7.33274 4.19531 7.00122ZM7.94531 7.00122C7.94531 6.75399 8.01862 6.51232 8.15598 6.30676C8.29333 6.1012 8.48855 5.94098 8.71696 5.84637C8.94537 5.75176 9.1967 5.72701 9.43918 5.77524C9.68165 5.82347 9.90438 5.94252 10.0792 6.11734C10.254 6.29215 10.3731 6.51488 10.4213 6.75736C10.4695 6.99983 10.4448 7.25117 10.3502 7.47957C10.2556 7.70798 10.0953 7.90321 9.88978 8.04056C9.68421 8.17791 9.44254 8.25122 9.19531 8.25122C8.86379 8.25122 8.54585 8.11952 8.31143 7.8851C8.07701 7.65068 7.94531 7.33274 7.94531 7.00122ZM11.6953 7.00122C11.6953 6.75399 11.7686 6.51232 11.906 6.30676C12.0433 6.1012 12.2386 5.94098 12.467 5.84637C12.6954 5.75176 12.9467 5.72701 13.1892 5.77524C13.4317 5.82347 13.6544 5.94252 13.8292 6.11734C14.004 6.29215 14.1231 6.51488 14.1713 6.75736C14.2195 6.99983 14.1948 7.25117 14.1002 7.47957C14.0056 7.70798 13.8453 7.90321 13.6398 8.04056C13.4342 8.17791 13.1925 8.25122 12.9453 8.25122C12.6138 8.25122 12.2958 8.11952 12.0614 7.8851C11.827 7.65068 11.6953 7.33274 11.6953 7.00122Z" fill="#CCD2E3"/>
</g>
<defs>
<clipPath id="clip0_419:729">
<rect width="30" height="30" fill="white" transform="translate(0.445312 0.751221)"/>
</clipPath>
</defs>
</svg>
