<svg xmlns="http://www.w3.org/2000/svg" viewBox="0 0 660.41 160.15"><defs><style>.cls-1{fill:#939393;}.cls-2{fill:#e3b24f;}.cls-3{fill:#030005;}</style></defs><title>Asset 5</title><g id="Layer_2" data-name="Layer 2"><g id="Layer_1-2" data-name="Layer 1"><path d="M274.05,100.1c3.22,3.5,3.48,7.94.63,10.56s-7.26,1.92-10.53-1.67l-8.56-9.4a47.39,47.39,0,0,1-22.76,5.77c-25.68,0-46.66-20.3-46.66-45.15s21-45.15,46.66-45.15,46.65,20.3,46.65,45.15a44.19,44.19,0,0,1-13.2,31.4ZM245.59,88.62l-8.14-9c-3.24-3.53-3.54-8-.7-10.54s7.23-1.88,10.45,1.64l9.08,9.92a31,31,0,1,0-10.69,7.93Z"/><path d="M290.86,97.67V22.89c0-4.05,2.18-6.23,6.23-6.23h35.39a27.19,27.19,0,0,1,27.66,27.73,25.07,25.07,0,0,1-18.87,24.52l17.09,25.32a6.34,6.34,0,0,1,1.28,4,6.81,6.81,0,0,1-6.8,6.81,6.9,6.9,0,0,1-5.64-3L326.64,71.57l-20.93,0V97.67a7.43,7.43,0,0,1-14.85,0Zm37.61-37.76c9.51,0,16.82-6.71,16.82-15.52S338.05,28.87,329,28.87H305.71v31Z"/><path d="M367.79,72.09c0-18.31,15.86-33.28,35.28-33.28,11.39,0,21.37,5.48,27,13.44a9,9,0,0,1,2,5.41A6.51,6.51,0,0,1,425.3,64c-2.47,0-4.83-1.67-6.32-3.53-3.53-4.89-8.94-8.73-16.14-8.74a20.24,20.24,0,0,0,0,40.48A18.91,18.91,0,0,0,419,84c1.49-2,3.8-3.61,6.27-3.61,3.88,0,6.79,2.75,6.79,6.37a9,9,0,0,1-2.08,5.4,33.62,33.62,0,0,1-26.94,13.21C383.65,105.37,367.79,90.4,367.79,72.09Z"/><path d="M437.19,72.08c0-18.3,15.81-33.28,35.09-33.28s35.17,15,35.17,33.28-15.81,33.28-35.17,33.28S437.19,90.39,437.19,72.08Zm55.41,0a20.28,20.28,0,1,0-20.32,20.24A20.4,20.4,0,0,0,492.6,72.08Z"/><path d="M512.07,72c0-19.59,15.66-33.21,32.08-33.21,10.07,0,19.63,5.82,23,14.24h.22V17.73a7.43,7.43,0,1,1,14.85,0V97.5c0,4.76-2.44,7.58-7,7.58-3.48,0-6.75-2.32-6.75-5.66V90.18h-.22c-3.55,9.56-14.09,15.18-23.86,15.18A32.83,32.83,0,0,1,512.07,72Zm55.33.07a20.24,20.24,0,1,0-20.24,20.24A20.24,20.24,0,0,0,567.4,72.08Z"/><path d="M651.23,76.67H606.64c2,10.12,10.18,16.59,21.21,16.59a21.76,21.76,0,0,0,16.72-7.41c1.53-1.76,3.51-3.28,5.84-3.28,3.68,0,6.51,2.58,6.51,6a8.37,8.37,0,0,1-2.36,5.53c-5.16,6.22-15,11.23-27.21,11.24-19.81,0-35.45-14.27-35.45-33.3,0-18.2,14.43-33.26,35.18-33.26,18.44,0,33.33,14.7,33.33,29.28C660.41,73.05,656.48,76.67,651.23,76.67ZM646.41,65.9c-2.34-9.46-9.27-15-19.33-15-11.19,0-18.25,6.14-20.31,15Z"/><path class="cls-1" d="M485.39,155.88A4.38,4.38,0,0,1,483.9,153a2.28,2.28,0,0,1,2.36-2.38,2.61,2.61,0,0,1,2.25,1.37,8.11,8.11,0,0,0,7.15,3.58c3,0,5.74-1.09,5.74-3.94,0-3.25-3.43-4.11-7-5.25-5.76-1.86-10.22-3.92-10.22-9.43s4.52-8.2,11.22-8.2c3.25,0,7,.6,9.22,3.67a4.2,4.2,0,0,1,1.2,2.67,2.27,2.27,0,0,1-2.33,2.43,2.41,2.41,0,0,1-2.13-1.15c-.59-.91-1.77-3.36-6.21-3.36-2.8,0-5.63,1-5.63,3.76,0,3,3.29,3.91,6.71,5,6,1.83,10.66,3.54,10.56,9.65-.09,5.69-4.61,8.6-11.17,8.6C491.74,159.94,488.1,158.91,485.39,155.88Z"/><path class="cls-1" d="M530.53,150H515.1a7.06,7.06,0,0,0,7.34,5.74,7.53,7.53,0,0,0,5.79-2.56,2.81,2.81,0,0,1,2-1.14,2.13,2.13,0,0,1,2.25,2.09,2.92,2.92,0,0,1-.81,1.92,12.32,12.32,0,0,1-9.42,3.88c-6.86,0-12.27-4.94-12.27-11.52,0-6.3,5-11.51,12.18-11.51,6.38,0,11.53,5.08,11.53,10.13A3,3,0,0,1,530.53,150Zm-1.66-3.73a6.46,6.46,0,0,0-6.69-5.2c-3.88,0-6.32,2.13-7,5.2Z"/><path class="cls-1" d="M537.74,157.29V139.38a2.46,2.46,0,0,1,2.47-2.39,2.33,2.33,0,0,1,2.36,2.25v3.69h.08c.76-3.58,3.47-6,6.44-6a2,2,0,0,1,2.22,2,2.5,2.5,0,0,1-2.24,2.64c-3.71.72-6.19,3.81-6.19,8.14v7.64a2.57,2.57,0,0,1-5.14,0Z"/><path class="cls-1" d="M562,158.94l-9.5-18.3a2.27,2.27,0,0,1-.28-1.12,2.55,2.55,0,0,1,4.85-1l6.56,13.21,6.27-13.06a2.68,2.68,0,0,1,2.39-1.6,2.47,2.47,0,0,1,2.46,2.57,2.41,2.41,0,0,1-.29,1.19l-9.42,18.14a1.72,1.72,0,0,1-1.51.93A1.75,1.75,0,0,1,562,158.94Z"/><path class="cls-1" d="M577.72,130.7a3.18,3.18,0,1,1,3.18,3.13A3.19,3.19,0,0,1,577.72,130.7Zm.61,26.53V139.61a2.57,2.57,0,1,1,5.14,0v17.62a2.57,2.57,0,1,1-5.14,0Z"/><path class="cls-1" d="M587.71,148.43c0-6.34,5.49-11.52,12.22-11.52a11.36,11.36,0,0,1,9.33,4.65,3.09,3.09,0,0,1,.7,1.87,2.26,2.26,0,0,1-2.34,2.21,3,3,0,0,1-2.19-1.23,6.81,6.81,0,0,0-5.59-3,7,7,0,0,0,0,14,6.56,6.56,0,0,0,5.61-2.85,2.9,2.9,0,0,1,2.17-1.25,2.23,2.23,0,0,1,2.35,2.2,3.09,3.09,0,0,1-.72,1.87,11.61,11.61,0,0,1-9.32,4.57C593.2,159.94,587.71,154.76,587.71,148.43Z"/><path class="cls-1" d="M633.13,150H617.7a7.06,7.06,0,0,0,7.34,5.74,7.55,7.55,0,0,0,5.79-2.56,2.81,2.81,0,0,1,2-1.14,2.13,2.13,0,0,1,2.25,2.09,2.92,2.92,0,0,1-.81,1.92,12.32,12.32,0,0,1-9.42,3.88c-6.86,0-12.27-4.94-12.27-11.52,0-6.3,5-11.51,12.18-11.51,6.38,0,11.53,5.08,11.53,10.13A3,3,0,0,1,633.13,150Zm-1.66-3.73a6.47,6.47,0,0,0-6.69-5.2c-3.88,0-6.32,2.13-7,5.2Z"/><path class="cls-1" d="M640.85,158.89a2.32,2.32,0,0,1-1.61-2.08,1.94,1.94,0,0,1,2.27-2c2.77.48,5.25,1.23,7.67,1.23s4.84-.7,4.84-2.51c0-2.14-3.42-2.66-6.63-3.39-4-.92-8.29-2.3-8.29-6.66,0-4.14,3.83-6.46,10.4-6.46a19.44,19.44,0,0,1,7.52,1.29c1,.45,1.84,1.05,1.84,2.08a1.74,1.74,0,0,1-2.18,1.8,35.1,35.1,0,0,0-7.46-1.31c-2.47,0-4.5.69-4.5,2.46,0,2.15,3.19,2.73,6.38,3.36,4.55.89,8.9,2.25,8.9,6.67s-4.3,6.77-11,6.77C646.37,160.15,642.75,159.77,640.85,158.89Z"/><path class="cls-2" d="M110.25,137.31a26.68,26.68,0,0,0,5.38-.55v19c-1.5.06-3,.08-4.63.08H44.91A44.9,44.9,0,0,1,0,111V44.91a43.74,43.74,0,0,1,.5-6.6H18.21a26.07,26.07,0,0,0-.74,6.21V111.2a26.1,26.1,0,0,0,26.08,26.11Z"/><path class="cls-2" d="M155.88,120.18H134.76a25.93,25.93,0,0,0,1.58-9V44.52a26.12,26.12,0,0,0-26.09-26.11h-67V0c.55,0,1.11,0,1.69,0H111a44.91,44.91,0,0,1,44.91,44.91V111c0,3.16,0,6.24,0,9.21"/><rect class="cls-3" x="58.39" y="61.31" width="41.09" height="41.09"/></g></g></svg>